<?xml version="1.0" encoding="UTF-8"?>
<svg id="Layer_2" data-name="Layer 2" xmlns="http://www.w3.org/2000/svg" viewBox="0 0 140.65 109.25">
  <defs>
    <style>
      .cls-1 {
        fill: #f3f3f3;
        stroke-width: 0px;
      }
    </style>
  </defs>
  <g id="Layer_1-2" data-name="Layer 1">
    <path class="cls-1" d="M133.16,47.14H25.55L59.92,12.77c2.92-2.92,2.92-7.66,0-10.58h0c-2.92-2.92-7.66-2.92-10.58,0L2.19,49.34c-.17.17-.34.36-.5.55-.07.08-.13.17-.2.26-.08.11-.16.21-.24.33-.07.11-.13.22-.2.32-.06.1-.12.2-.18.3-.06.11-.11.23-.16.34-.05.11-.1.21-.15.33-.05.11-.08.22-.12.33-.04.12-.09.24-.13.36-.03.11-.06.22-.09.34-.03.12-.07.25-.09.37-.03.13-.04.26-.06.39-.02.11-.04.22-.05.34-.02.24-.04.48-.04.72,0,0,0,.01,0,.02s0,.01,0,.02c0,.24.01.48.04.72.01.11.03.22.05.34.02.13.03.26.06.39.03.13.06.25.09.38.03.11.05.22.09.33.04.12.08.24.13.36.04.11.08.22.12.33.05.11.1.22.15.33.05.11.1.23.16.34.06.1.12.2.18.3.06.11.13.22.2.32.08.11.16.22.24.33.06.09.12.17.19.26.16.19.32.38.5.55l47.14,47.14c2.92,2.92,7.66,2.92,10.58,0s2.92-7.66,0-10.58L25.55,62.11h107.62c4.13,0,7.48-3.35,7.48-7.48s-3.35-7.48-7.48-7.48Z"/>
  </g>
</svg>