<?xml version="1.0" encoding="UTF-8"?>
<svg id="Layer_2" data-name="Layer 2" xmlns="http://www.w3.org/2000/svg" viewBox="0 0 520.22 272.34">
  <defs>
    <style>
      .cls-1 {
        fill: #f3f3f3;
      }

      .cls-1, .cls-2, .cls-3, .cls-4, .cls-5, .cls-6, .cls-7, .cls-8, .cls-9, .cls-10, .cls-11, .cls-12, .cls-13, .cls-14, .cls-15, .cls-16, .cls-17, .cls-18, .cls-19, .cls-20, .cls-21, .cls-22 {
        stroke-width: 0px;
      }

      .cls-2 {
        fill: #525254;
      }

      .cls-3 {
        fill: #635fc1;
      }

      .cls-4 {
        fill: #7063d2;
      }

      .cls-5 {
        fill: #3d5a9b;
      }

      .cls-6 {
        fill: #434249;
      }

      .cls-7 {
        fill: #214195;
      }

      .cls-8 {
        fill: #c48530;
      }

      .cls-9 {
        fill: #cbc8c7;
      }

      .cls-10 {
        fill: #ccc;
      }

      .cls-11 {
        fill: #ad722b;
      }

      .cls-12 {
        fill: #d5d3d5;
      }

      .cls-13 {
        fill: #d6d4d4;
      }

      .cls-14 {
        fill: #aca4d8;
      }

      .cls-15 {
        fill: #8e7ada;
      }

      .cls-16 {
        fill: #305eaa;
      }

      .cls-17 {
        fill: #e3b345;
      }

      .cls-18 {
        fill: #fefbed;
      }

      .cls-19 {
        fill: #ebebeb;
      }

      .cls-20 {
        fill: #f4e0bd;
      }

      .cls-21 {
        fill: #676463;
      }

      .cls-22 {
        fill: #697faf;
      }
    </style>
  </defs>
  <g id="Layer_1-2" data-name="Layer 1">
    <g>
      <ellipse class="cls-10" cx="399.07" cy="250.18" rx="121.14" ry="22.17"/>
      <path class="cls-4" d="M285.83,231.6c5.29-19.71,12.76-33.58,22.82-40.51,4.3-2.91,5.4-5.36,4.87-18.8l-.19-25.6c-32.35,3.31-29.68,44.36-27.5,84.91Z"/>
      <path class="cls-3" d="M293.71,182.3c.53,7.6.33,15.21-.61,22.81-.09.71.85,1,1.19.38,2.87-5.24,7.83-10.78,13.04-16.34,1.7-1.81,2.72-3.27,3.61-5.08.25-.51-.25-1.06-.79-.87-6.41,2.24-11.78,2.3-15.36-1.38-.42-.43-1.12-.11-1.08.49Z"/>
      <ellipse class="cls-18" cx="297.14" cy="184.15" rx="11.44" ry="5.12" transform="translate(21.94 399.72) rotate(-69.86)"/>
      <path class="cls-12" d="M291.25,195.59l-.5-.28c-.4-.23-.76-.53-1.03-.9-5.95-7.92-5.03-15.78,3.04-23.6.86-.83,2.11-1.15,3.26-.83l4.32,1.2c2,.56,3.01,2.77,2.15,4.65-2.76,6.04-5.03,11.95-6.25,17.56-.48,2.22-3.01,3.31-4.99,2.19Z"/>
      <g>
        <ellipse class="cls-6" cx="242.12" cy="224.02" rx="29.03" ry="27.86"/>
        <circle class="cls-21" cx="240.77" cy="224.8" r="25.37"/>
        <circle class="cls-19" cx="241.56" cy="224.02" r="22.33"/>
        <circle class="cls-9" cx="241.56" cy="224.02" r="16.4"/>
        <circle class="cls-1" cx="238.82" cy="223.22" r="9.38"/>
        <path class="cls-13" d="M256.32,220.66c-.25-1.66-.67-4.22-2.5-4.89-.75-.27-1.55-.04-1.9.71-.35.76-.1,1.64.24,2.36.46.99,1.13,1.86,1.58,2.85.48,1.06.79,2.21.91,3.36.21,2.14-.27,4.34-1.47,6.14-1.27,1.91-3.19,2.92-5.26,3.75-.89.36-5.59,2.08-3.76,3.58.86.7,2.29-.11,3.15-.45,1.09-.44,2.14-.96,3.16-1.53,1.61-.72,2.78-2.07,3.65-3.59,1.06-1.85,1.78-3.92,2.14-6.02.36-2.08.38-4.19.06-6.27Z"/>
        <path class="cls-2" d="M269.02,221.76c-.43-2.12-.95-4.23-1.57-6.29-.57-1.88-1.27-3.73-2.27-5.36-.92-1.5-2.06-2.82-3.43-3.76-.01,0-.02-.02-.04-.03-.01,0-.03,0-.04-.02-.15-.1-.29-.19-.44-.28-.42-.25-.8.48-.37.73.23.13.44.29.65.45,2.42,1.89,3.46,5.35,4.35,8.4.55,1.9,1.03,3.83,1.44,5.79.41,1.98.8,3.98.4,6.01-.38,1.95-1.12,3.82-.81,5.86.05.3.45.43.62.19,1.07-1.55,1.75-3.34,1.98-5.3.25-2.14-.03-4.3-.45-6.38Z"/>
      </g>
      <path class="cls-4" d="M89.05,69.58c1.85-1.61,4.14-2.4,6.86-2.43h97.67c6.95.24,10.44,4.12,12.52,7.52l14.6,44.7c2.89,8.11,17.42,9.66,27.93,6.1,7.52-3.09,12.24-.84,16.11,1.87,3.78,3.01,8.11,5.05,15.71,1.33,9.79-3.99,17.78-4.51,22.57,1.11l7.74,8.63c4.02,4.6,4.49,11.62-4.47,15.06-14.05,5.39-12.28,23.11-16.46,23.87l-8.53,10.47-84.98-4.02-97.01-37.64-43.42-47.43,33.16-29.13Z"/>
      <g>
        <ellipse class="cls-6" cx="58.16" cy="218.81" rx="28.34" ry="27.2"/>
        <ellipse class="cls-21" cx="57.61" cy="219.84" rx="25.54" ry="24.51"/>
        <ellipse class="cls-19" cx="57.05" cy="220.6" rx="21.24" ry="20.01"/>
        <circle class="cls-9" cx="57.61" cy="218.81" r="16.01"/>
        <circle class="cls-9" cx="54.96" cy="220.6" r="8.54"/>
        <path class="cls-13" d="M62.04,206.19c-1.48-.7-3.46-.86-5.32-.65-.94.11-3.24-.03-3.69,2.34-.15.81.6,2.03,1.36,2.16,1.05.17,2.12.1,3.17.28,1.11.19,2.22.56,3.21,1.1,1.85,1,3.36,2.59,4.16,4.54.85,2.07.62,4.18.16,6.3-.2.91,2.54,4.18,4.74,3.52,1.03-.31,1.17-1.92,1.35-2.79.24-1.12.4-2.25.49-3.39.29-1.7-.15-3.38-.91-4.92-.92-1.87-2.2-3.58-3.7-5.02-1.48-1.42-3.18-2.59-5.04-3.48Z"/>
        <path class="cls-13" d="M52.17,232.25c1,.35,2.17.48,3.2.45.52-.01,1.87.12,1.65-.89-.08-.34-.76-.9-1.23-.97-.64-.11-1.24-.11-1.89-.22-.68-.12-1.39-.32-2.08-.58-1.27-.49-2.47-1.23-3.33-2.09-.91-.92-1.21-1.82-1.38-2.72-.07-.39-2.32-1.88-3.46-1.67-.53.1-.28.79-.21,1.16.09.47.23.96.41,1.45.18.72.78,1.46,1.53,2.15.91.83,2,1.61,3.16,2.28,1.15.66,2.36,1.22,3.62,1.66Z"/>
        <path class="cls-2" d="M85.42,215.67c-.42-2.07-.93-4.13-1.53-6.14-.55-1.84-1.24-3.64-2.22-5.24-.89-1.47-2.01-2.75-3.35-3.67-.01,0-.02-.02-.04-.03-.01,0-.03,0-.04-.02-.14-.09-.28-.19-.43-.28-.41-.24-.78.47-.36.71.22.13.43.29.63.44,2.37,1.84,3.38,5.23,4.25,8.2.54,1.86,1.01,3.74,1.4,5.65.4,1.94.78,3.89.39,5.87-.37,1.91-1.1,3.73-.79,5.72.04.29.44.42.6.18,1.04-1.51,1.71-3.27,1.93-5.17.24-2.09-.03-4.2-.44-6.23Z"/>
      </g>
      <path class="cls-15" d="M30.58,227.75l-21.65-.98c-5.11-.68-9.58-2.28-8.86-11.22l2.48-34.27c1.79-13.4,7.22-22.45,14.86-28.85,11.51-8.35,19.87-18.34,24.48-30.25,11.46-23.39,14.28-29.45,34.97-29.37h84.28c11.68-.24,19.46,7.23,21.86,25.35l7.27,30.75c2.72,10.77,15.51,21.06,25.41,23.61,5.01,1.51,11.68,1.99,16.45-.5,3.66-1.74,7.3-2.47,10.84,1.92,4.1,3.35,8.29,5.83,13.11,2.27,8.92-8.04,17.72-13.33,25.88-2.8,1.48,2.43,4.92,4.48,9.15,2.96,3.64,15.64-.92,41.61-5.29,55.23-.76,2.58-2.41,5.02-3.73,6.38-4.34,4.11-7.37,3.32-8.91-3.11-6.82-48.54-46.87-44.42-58.02-21.14-2.19,5.72-3.39,11.81-.41,19.48l-130.76-3.52c1.87-23.67-7.39-35.68-27.15-36.68-18.8.03-27.45,11.73-26.26,34.73Z"/>
      <path class="cls-16" d="M45.72,154.74l58.81,1.31c6.57.1,7.17-.95,7.1-6.43v-35.09c-.08-6.14-3-8.81-8.17-8.71h-25.31c-12.66-.25-21.71,4.07-25.85,14.6l-8.57,21.97c-3.26,7.95-4.73,12.2,2,12.35Z"/>
      <path class="cls-16" d="M127.39,157.02l48.04.96c5.3.02,5.85-1.32,4.92-5.76l-7.33-38.43c-.74-4.51-2.62-6.41-7.45-6.49l-40.59-.6c-4.16,0-5.77,1.32-5.76,4.56v39.39c0,6.73,3.03,6.15,8.17,6.37Z"/>
      <path class="cls-3" d="M229.17,168.73c2.53-.89,6.21-1.72,8.6-1.23.7.14,1.36-.36,1.46-1.07,1.24-9.44,6.98-30.4,12.91-36.95.88-.98-.15-2.51-1.37-2.02-.02,0-.04.01-.06.02-9.8,4.56-22.25,3-27.58-.78-.56-.4-1.34-.3-1.75.26l-21.67,28.82c-.29.39-.35.92-.11,1.34,4.18,7.61,16,14.67,29.43,11.66.05-.01.1-.03.15-.04Z"/>
      <path class="cls-3" d="M253.27,173.04l17.49-41.61c.22-.51.73-.86,1.28-.82,2.56.17,5.37-.5,8.4-1.95,4.74-2.21,9.18-3.26,13.3-3.06,1.12.05,1.69,1.39.95,2.23-10.36,11.75-17.68,24.55-19.6,37.16-.11.74-.79,1.24-1.53,1.14-3.11-.41-6.66.58-9.68,2.07-3.39,1.88-5.94,4.86-8.69,6.54-1.1.67-2.42-.49-1.92-1.69Z"/>
      <path class="cls-3" d="M311.57,141.52c-8.9,2.26-19,20.37-24.74,32.01-.75,2.26,2.61,3.43,3.36,1.17,4.44-12.75,13.27-26.53,21.38-33.18Z"/>
      <path class="cls-8" d="M248.57,92.24c7.53-18.97,9.82-34.55,5.89-46.12-1.71-4.9-1.13-7.52,7.32-17.98l15.44-20.42c23.97,21.98-2.69,53.31-28.66,84.52Z"/>
      <path class="cls-11" d="M271.7,48c-4.97,5.78-9.35,12-13.14,18.66-.35.62-1.28.3-1.18-.41.83-5.91.16-13.32-.7-20.9-.28-2.46-.23-4.25.14-6.23.1-.55.84-.7,1.15-.23,3.8,5.62,8.07,8.88,13.14,8.07.59-.09.97.59.58,1.04Z"/>
      <ellipse class="cls-18" cx="267.84" cy="47.43" rx="11.44" ry="5.12" transform="translate(146.14 290.69) rotate(-73.46)"/>
      <path class="cls-12" d="M265.73,60.12l.57.07c.46.06.92.03,1.36-.1,9.5-2.8,13.46-9.66,11.66-20.74-.19-1.18-1-2.18-2.12-2.61l-4.18-1.61c-1.93-.75-4.07.42-4.5,2.44-1.4,6.5-3.1,12.59-5.48,17.81-.94,2.07.44,4.45,2.69,4.73Z"/>
      <g>
        <ellipse class="cls-6" cx="288.16" cy="112.27" rx="27.86" ry="29.03" transform="translate(26 276.33) rotate(-53.32)"/>
        <circle class="cls-21" cx="288.77" cy="113.7" r="25.37"/>
        <circle class="cls-19" cx="288.61" cy="112.61" r="22.33"/>
        <circle class="cls-9" cx="288.61" cy="112.61" r="16.4"/>
        <circle class="cls-1" cx="291.27" cy="113.6" r="9.38"/>
        <path class="cls-13" d="M275.08,106.16c-.96,1.9-1.62,3.99-1.88,6.1-.21,1.74-.08,3.52.78,5.06.48,1.07,1.01,2.11,1.62,3.12.48.78,1.15,2.29,2.25,2.24,2.36-.11-.38-4.3-.88-5.12-1.16-1.9-2.1-3.86-1.98-6.15.12-2.16,1.04-4.21,2.49-5.8.78-.86,1.72-1.59,2.74-2.15.96-.53,2.02-.82,2.97-1.34.7-.38,1.43-.93,1.6-1.76.17-.81-.34-1.47-1.1-1.7-1.87-.56-3.73,1.25-4.92,2.43-1.5,1.48-2.74,3.19-3.69,5.06Z"/>
        <path class="cls-2" d="M267.92,94.39c1.61-1.44,3.29-2.83,5.01-4.1,1.58-1.17,3.25-2.23,5.03-2.94,1.63-.66,3.34-1.03,5-.97.02,0,.03,0,.05,0,.02,0,.03,0,.04,0,.17,0,.35.02.52.04.49.05.35.86-.14.81-.26-.03-.53-.03-.79-.03-3.07.07-5.97,2.23-8.5,4.14-1.58,1.2-3.12,2.46-4.61,3.78-1.51,1.35-3.02,2.72-3.91,4.59-.86,1.8-1.38,3.74-2.85,5.19-.21.21-.62.07-.61-.22.07-1.88.59-3.73,1.58-5.43,1.08-1.86,2.59-3.43,4.17-4.85Z"/>
      </g>
      <path class="cls-8" d="M503.16,79.83c-.52-2.39-1.89-4.4-4.05-6.05l-78.33-58.33c-5.71-3.96-10.83-2.93-14.54-1.45l-38.41,27.13c-7.16,4.77-19.74-2.66-26.04-11.79-4.18-6.97-9.32-7.98-14.03-8.12-4.83.16-9.52-.79-13.39-8.32-5.47-9.05-11.57-14.24-18.76-12.59l-11.37,2.3c-5.98,1.29-10.55,6.64-5.41,14.75,8.05,12.72-3.95,25.87-1.05,28.97l.59,13.5,70.56,47.53,100.28,27.75,63.15-12.11-9.19-43.17Z"/>
      <g>
        <ellipse class="cls-6" cx="438.81" cy="217.97" rx="27.2" ry="28.34" transform="translate(1.9 439.72) rotate(-53.32)"/>
        <ellipse class="cls-21" cx="438.64" cy="219.12" rx="24.51" ry="25.54" transform="translate(.9 440.05) rotate(-53.32)"/>
        <ellipse class="cls-19" cx="438.63" cy="220.07" rx="20.01" ry="21.24" transform="translate(.15 440.42) rotate(-53.32)"/>
        <circle class="cls-9" cx="439.25" cy="218.3" r="16.01"/>
        <circle class="cls-9" cx="440.31" cy="221.31" r="8.54"/>
        <path class="cls-13" d="M437.12,205.31c-2.07.26-4.11.86-5.97,1.81-1.52.78-2.89,1.86-3.67,3.4-.61.97-1.16,1.97-1.63,3.01-.37.82-1.23,2.18-.58,3.05,1.38,1.85,5.52.86,5.91,0,.9-1.98,1.98-3.81,3.89-4.96,1.81-1.09,3.97-1.46,6.05-1.16,1.12.16,2.23.53,3.24,1.04.95.48,1.77,1.18,2.71,1.67.69.36,2.02-.18,2.38-.92,1.06-2.17-.86-3.43-1.56-4.08-1.37-1.28-3.05-2.34-4.65-2.66-2.02-.4-4.08-.48-6.11-.22Z"/>
        <path class="cls-13" d="M439.47,233.15c1.33.16,2.67.18,3.9.06,1.01-.1,1.94-.34,2.51-.81.44-.28.84-.59,1.19-.91.28-.26.89-.66.52-1.05-.79-.85-3.48-.99-3.77-.72-.67.62-1.45,1.16-2.73,1.35-1.21.18-2.61.06-3.92-.31-.71-.2-1.4-.47-2.01-.78-.58-.29-1.07-.65-1.65-.95-.42-.22-1.3-.18-1.57.05-.78.67.38,1.37.79,1.7.81.64,1.83,1.23,2.84,1.55,1.27.39,2.58.67,3.89.83Z"/>
        <path class="cls-2" d="M418.82,199.16c1.57-1.41,3.21-2.76,4.89-4.01,1.54-1.14,3.17-2.17,4.91-2.87,1.59-.64,3.26-1.01,4.88-.94.02,0,.03,0,.05,0,.02,0,.03,0,.04,0,.17,0,.34.02.51.04.48.05.34.84-.13.79-.26-.03-.51-.02-.77-.03-3,.07-5.83,2.17-8.3,4.04-1.54,1.17-3.05,2.4-4.5,3.69-1.48,1.32-2.95,2.66-3.82,4.48-.84,1.75-1.35,3.65-2.78,5.06-.21.21-.6.07-.59-.21.07-1.83.58-3.64,1.54-5.3,1.05-1.82,2.53-3.35,4.08-4.73Z"/>
      </g>
      <path class="cls-17" d="M455.59,241.61l17.95,12.14c4.51,2.51,9.04,3.89,13.8-3.71l18.48-28.97c6.57-11.82,7.62-22.32,5.31-32.02-4.25-13.58-4.98-26.57-1.57-38.88,4.78-25.61,6.14-32.15-10.5-44.45l-67.59-50.34c-9.23-7.17-19.93-5.83-32.67,7.28l-24.2,20.32c-8.61,7.01-25.01,7.63-34.48,3.76-4.92-1.79-10.56-5.37-12.9-10.23-1.89-3.58-4.38-6.34-9.84-4.93-5.29.24-10.13-.27-11.88-6.01-2.35-11.78-6.25-21.27-19.08-17.7-2.64,1.06-6.63.65-9.11-3.09-12.26,10.37-24.12,33.93-28.75,47.46-.94,2.52-1.06,5.46-.82,7.34,1.02,5.89,3.93,7.07,9,2.83,34.46-34.86,64.12-7.63,59.16,17.7-1.65,5.9-4.33,11.5-11.3,15.87l106.98,75.28c12.64-20.1,27.24-24.21,43.68-13.2,15.06,11.26,15,25.8.31,43.54Z"/>
      <path class="cls-16" d="M487.05,174.01l-47.95-34.08c-5.33-3.84-5.18-5.04-1.85-9.4l20.96-28.15c3.74-4.88,7.67-5.28,11.75-2.1l20.3,15.12c10.3,7.36,14.98,16.23,12.01,27.15l-6.24,22.74c-2.13,8.33-3.49,12.61-8.98,8.71Z"/>
      <path class="cls-16" d="M420.19,127.06l-39.1-27.92c-4.26-3.15-3.91-4.55-.51-7.56l28.83-26.45c3.29-3.17,5.93-3.58,9.85-.75l32.92,23.76c3.34,2.48,3.84,4.51,1.9,7.1l-23.53,31.6c-4.02,5.39-6.1,3.13-10.35.23Z"/>
      <path class="cls-11" d="M331.57,75.66c-1.5-2.22-3.95-5.09-6.16-6.12-.65-.3-.88-1.11-.53-1.73,4.64-8.31,12.56-28.55,11.72-37.35-.13-1.31,1.62-1.92,2.31-.8.01.02.02.03.03.05,5.14,9.52,16.05,15.69,22.59,15.85.69.02,1.25.56,1.25,1.25l.17,36.06c0,.49-.27.94-.71,1.15-7.9,3.61-21.59,2.2-30.57-8.23-.03-.04-.07-.08-.1-.13Z"/>
      <path class="cls-11" d="M309.66,64.72l10.83-43.81c.13-.54-.07-1.12-.54-1.43-2.16-1.39-4.01-3.61-5.57-6.59-2.48-4.61-5.41-8.1-8.83-10.4-.93-.62-2.18.1-2.09,1.22,1.29,15.61-.48,30.25-6.48,41.51-.35.66-.11,1.46.55,1.83,2.74,1.53,5,4.45,6.53,7.44,1.59,3.53,1.86,7.45,3.07,10.43.48,1.2,2.23,1.05,2.54-.21Z"/>
      <path class="cls-11" d="M281.73,4.62c5.78,7.13,3.07,27.68.72,40.45-.75,2.26-4.14,1.2-3.39-1.07,4.06-12.88,5.21-29.2,2.67-39.38Z"/>
      <path class="cls-7" d="M194.76,148.32l-8.82-36.38c-2.04-8.15-1.48-11.68,1.09-14.8l15.75-20.77c1.58-2.11,3.42-2.61,4.62,0l11.27,34.48c1.52,4.2,2.44,6.5.68,9.64l-18.33,28.92c-2.35,3.92-4.52,4.98-6.24-1.09Z"/>
      <path class="cls-7" d="M372.06,78.89l28.81-23.91c6.5-5.32,8.16-8.49,7.97-12.52l-.22-26.07c-.01-2.64-1.19-4.14-3.7-2.76l-29.63,20.93c-3.73,2.46-5.83,3.76-6.3,7.33l-2.57,34.14c-.46,4.55.66,6.69,5.66,2.86Z"/>
      <polygon class="cls-22" points="202.15 140.72 197.31 116.93 198.26 110.1 200.04 107.66 205.35 100.38 206.84 89.62 207.69 100.96 200.34 114.15 202.15 140.72"/>
      <rect class="cls-14" x="120.94" y="177.24" width="26.99" height="4.64" rx="2.32" ry="2.32"/>
      <rect class="cls-20" x="389.61" y="133.3" width="26.99" height="4.64" rx="2.32" ry="2.32" transform="translate(145.98 -203.17) rotate(34.21)"/>
      <polygon class="cls-5" points="403.92 47.51 389.06 41.39 389.87 34.73 372.91 41.05 384.62 39.22 387.35 46.88 403.92 47.51"/>
    </g>
  </g>
</svg>