<?xml version="1.0" encoding="UTF-8"?>
<svg id="Layer_2" data-name="Layer 2" xmlns="http://www.w3.org/2000/svg" viewBox="0 0 424.79 380.35">
  <defs>
    <style>
      .cls-1 {
        fill: #878787;
      }

      .cls-1, .cls-2, .cls-3, .cls-4, .cls-5, .cls-6, .cls-7, .cls-8, .cls-9, .cls-10, .cls-11, .cls-12, .cls-13, .cls-14, .cls-15 {
        stroke-width: 0px;
      }

      .cls-2 {
        fill: #9a9a9a;
      }

      .cls-3 {
        fill: #424242;
      }

      .cls-4 {
        fill: #ccc;
      }

      .cls-5 {
        fill: #ad4040;
      }

      .cls-6 {
        fill: #d6d6d6;
      }

      .cls-7 {
        fill: #d84c4c;
      }

      .cls-8 {
        fill: #d8d8d8;
      }

      .cls-9 {
        fill: #b24242;
      }

      .cls-10 {
        fill: #a7a7a7;
      }

      .cls-11 {
        fill: #aaa;
      }

      .cls-12 {
        fill: #8e3838;
      }

      .cls-13 {
        fill: #737373;
      }

      .cls-14 {
        fill: #a1a1a1;
      }

      .cls-15 {
        fill: #6b2c2c;
      }
    </style>
  </defs>
  <g id="Layer_1-2" data-name="Layer 1">
    <g>
      <ellipse class="cls-4" cx="212.4" cy="337.94" rx="212.44" ry="42.21" transform="translate(-6.62 4.25) rotate(-1.13)"/>
      <g>
        <g>
          <g>
            <path class="cls-10" d="M62.38,97.06c-.16,2.92.25,5.73,1.13,8.34-.83-2.61-1.23-5.4-1.13-8.34Z"/>
            <path class="cls-10" d="M72.14,64.69l.76-13.94c.69-12.62,11.43-22.33,24.06-21.74l45.23,2.11c.39.02.77.05,1.15.08-2.72-1.29-5.74-2.08-8.94-2.22l-45.23-2.07c-12.63-.58-23.37,8.93-24.06,21.3l-2.73,48.84,1.87-33.55c3.84.45,5.96.64,7.88,1.18Z"/>
            <path class="cls-13" d="M93.16,124.88s0,0-.01,0c0,0,0,0,.01,0h47.57s.03,0,.05,0c-.02,0-.03,0-.05,0h-47.57Z"/>
            <path class="cls-13" d="M164.13,54.31c.1-11.98-8.99-21.96-20.79-23.1,7.78,3.69,13.08,11.51,13.01,20.49l-.38,46.77c-.04,5.1-1.81,9.79-4.75,13.54l7.31,4.44c-.05.07-.11.13-.16.19,3.32-3.96,5.34-9.05,5.39-14.61l.38-47.73Z"/>
            <path class="cls-13" d="M96.96,29.02c-12.63-.59-23.37,9.12-24.06,21.74l-.76,13.94c1.36.39,2.61.95,4.29,1.92l74.78,45.4c2.94-3.76,4.71-8.45,4.75-13.54l.38-46.77c.07-8.98-5.23-16.81-13.01-20.49-.38-.04-.77-.06-1.15-.08l-45.23-2.11Z"/>
            <path class="cls-5" d="M63.52,105.4c3.68,11.61,15.76,19.48,29.63,19.48-5.38,0-10.31-1.85-14.22-4.93-7.28-2.08-13.04-7.57-15.41-14.56Z"/>
            <path class="cls-10" d="M140.78,124.88c7.72-.01,13.34-2.9,17.59-8.23-4.22,5.02-10.53,8.21-17.59,8.23Z"/>
            <path class="cls-5" d="M78.93,119.95c-5.67-4.47-9.18-11.54-8.76-19.35l1.96-35.9c-1.91-.54-4.04-.73-7.88-1.18l-1.87,33.55c-.1,2.94.31,5.73,1.13,8.34,2.36,6.98,8.13,12.48,15.41,14.56Z"/>
            <path class="cls-15" d="M151.21,112.02c-4.21,5.37-10.83,8.83-18.27,8.83h-47.57c-2.24,0-4.4-.32-6.45-.9,3.91,3.08,8.84,4.92,14.22,4.93,0,0,0,0,.01,0h47.57s.03,0,.05,0c7.06-.01,13.37-3.21,17.59-8.23.05-.07.11-.13.16-.19l-7.31-4.44Z"/>
            <path class="cls-15" d="M72.14,64.69l-1.96,35.9c-.43,7.81,3.08,14.88,8.76,19.35,2.04.58,4.2.9,6.45.9h47.57c7.44,0,14.06-3.46,18.27-8.83l-74.78-45.4c-1.68-.97-2.93-1.54-4.29-1.92Z"/>
          </g>
          <g>
            <path class="cls-10" d="M157.78,181.04s-.01-.04-.02-.05c0,.02,0,.03.01.05h0Z"/>
            <path class="cls-10" d="M156.7,177.74c-2.78-7.67-8.22-15.55-25.38-16.24,3.73.28,7.21,1.48,10.18,3.38,6.88,1.58,12.53,6.44,15.2,12.86Z"/>
            <path class="cls-10" d="M128.83,161.45c.86,0,1.69.02,2.5.05-.82-.06-1.66-.08-2.5-.05Z"/>
            <path class="cls-10" d="M66.35,186.65c.61-11.23,9.69-20.15,20.94-20.55l45.95-1.67-4.41-2.99-48.53,1.72c-11.24.4-20.32,9.08-20.94,20.02l-.8,14.32,7.14,1.16.66-12.01Z"/>
            <path class="cls-10" d="M57.12,222.99c-.14,2.51.17,4.93.86,7.19-.66-2.34-.97-4.76-.86-7.19Z"/>
            <path class="cls-10" d="M135.82,164.34c1.96-.07,3.87.12,5.69.54-2.97-1.89-6.45-3.1-10.18-3.38-.81-.03-1.64-.05-2.5-.05l4.41,2.99,2.58-.09Z"/>
            <path class="cls-13" d="M142.42,244.95c-.2.06-.41.1-.62.15.2-.05.41-.1.62-.15Z"/>
            <path class="cls-13" d="M82.03,250.14c1.87.33,3.81.42,5.8.24-1.99.1-3.93,0-5.8-.24Z"/>
            <path class="cls-13" d="M138.3,245.73c.84-.08,1.66-.22,2.47-.39l-52.93,5.03,50.46-4.65Z"/>
            <path class="cls-13" d="M158.37,186.26c.01-1.8-.2-3.55-.59-5.22l-7.5-5.08c.73,2.15,1.12,4.44,1.1,6.84l-.31,37c-.04,5.15-1.99,9.87-5.19,13.54l7.97,3.58c2.62-3.57,4.18-7.95,4.21-12.67l.31-37.99Z"/>
            <path class="cls-13" d="M156.7,177.74c.4,1.09.74,2.18,1.06,3.25-.27-1.12-.62-2.2-1.06-3.25Z"/>
            <path class="cls-13" d="M153.71,237.1c-.13.17-.26.33-.39.5.13-.17.27-.33.39-.5Z"/>
            <path class="cls-13" d="M141.51,164.88c4.07,2.6,7.2,6.49,8.76,11.08l7.5,5.08s0-.03-.01-.05c-.32-1.06-.66-2.15-1.06-3.25-2.67-6.42-8.32-11.27-15.2-12.86Z"/>
            <path class="cls-13" d="M87.29,166.1c-11.24.41-20.32,9.32-20.94,20.55l-.66,12.01,4.8.78,75.38,33.88c3.2-3.67,5.15-8.39,5.19-13.54l.31-37c.02-2.39-.37-4.69-1.1-6.84l-17.03-11.52-45.95,1.67Z"/>
            <path class="cls-13" d="M141.51,164.88c-1.82-.42-3.73-.61-5.69-.54l-2.58.09,17.03,11.52c-1.56-4.59-4.69-8.48-8.76-11.08Z"/>
            <path class="cls-5" d="M153.86,236.92h-.01c-.05.06-.09.12-.13.18.05-.06.1-.12.14-.18Z"/>
            <path class="cls-5" d="M140.86,245.34c.33-.07.63-.16.95-.24-.34.09-.69.17-1.04.25h.09Z"/>
            <path class="cls-5" d="M142.42,244.95c4.88-1.34,8.28-3.99,10.9-7.34-2.75,3.45-6.52,6.06-10.9,7.34Z"/>
            <path class="cls-5" d="M69.82,243.43c-5.66-2.52-10.03-7.34-11.83-13.24,2.8,9.93,12.03,18.35,24.04,19.96-4.78-.84-9.04-3.26-12.21-6.71Z"/>
            <polygon class="cls-5" points="58.55 197.5 58.55 197.5 57.12 222.99 57.12 222.99 57.12 222.99 58.55 197.5"/>
            <path class="cls-5" d="M69.82,243.43c-3.81-4.14-6.04-9.76-5.7-15.9l1.58-28.86-7.14-1.16-1.43,25.49h0c-.1,2.43.21,4.85.86,7.19,1.8,5.9,6.18,10.72,11.83,13.24Z"/>
            <path class="cls-15" d="M131.3,240.72l-50.46,4.52c-3.94.35-7.7-.34-11.02-1.82,3.17,3.45,7.43,5.87,12.21,6.71,1.87.25,3.81.34,5.8.24l52.93-5.03c.35-.07.7-.16,1.04-.25.21-.05.41-.1.62-.15,4.38-1.28,8.15-3.89,10.9-7.34.13-.17.27-.33.39-.5.05-.06.09-.13.13-.19l-7.97-3.58c-3.57,4.09-8.7,6.87-14.57,7.39Z"/>
            <path class="cls-15" d="M65.69,198.67l-1.58,28.86c-.34,6.15,1.9,11.76,5.7,15.9,3.32,1.48,7.08,2.17,11.02,1.82l50.46-4.52c5.87-.53,11-3.3,14.57-7.39l-75.38-33.88-4.8-.78Z"/>
          </g>
        </g>
        <g>
          <path class="cls-2" d="M135.88,1.94l-11.29-.4c-3.86-.14-7.15,2.74-7.49,6.56l-27.47,308.05c-.04.41-.03.82,0,1.21,0,.07.01.14.02.22.02.14.03.27.05.41.75,5.96,6.87,9.57,13.29,8.99l-3.97-3.21,6.64-.88c3.33-.44,5.92-3.1,6.25-6.41L142.86,9.86c.42-4.14-2.78-7.77-6.97-7.91Z"/>
          <path class="cls-3" d="M94.8,319.14L122.37,8.35c.34-3.85,3.63-6.75,7.49-6.62l11.29.4c4.19.15,7.39,3.81,6.97,7.98l-31.02,309.34c-.34,3.35-2.92,6.02-6.26,6.47l-7.83,1.06c-4.62.62-8.62-3.2-8.2-7.84Z"/>
        </g>
        <g>
          <path class="cls-2" d="M293.49,11.4h-11.3c-3.86,0-7.05,2.79-7.25,6.35l-16.62,287.59c-.02.39,0,.76.05,1.13,0,.07.02.13.03.2.02.13.04.25.07.38.96,5.53,7.2,8.68,13.6,7.93l-4.08-2.86,6.6-1.04c3.31-.52,5.81-3.08,6.02-6.17l20.13-286.36c.27-3.86-3.05-7.14-7.25-7.14Z"/>
          <path class="cls-3" d="M263.59,307.95l16.62-290.15c.21-3.59,3.39-6.4,7.25-6.4h11.3c4.2,0,7.52,3.3,7.25,7.2l-20.13,288.91c-.22,3.12-2.71,5.7-6.02,6.23l-7.79,1.24c-4.59.73-8.72-2.7-8.47-7.03Z"/>
        </g>
        <g>
          <path class="cls-14" d="M154,345.59l-.37-334c0-4.18-3.11-7.72-7.28-8.31l-5.82-.82,3.61-2.38c-7.64-.63-13.8,2.31-15.3,7.99-.22.74-.35,1.52-.35,2.33l-.72,335.95c0,.7.09,1.38.25,2.03,1.23,6.33,6.75,10.26,14.48,10l-4.57-3.73,8.34-.72c4.37-.38,7.72-4,7.72-8.36Z"/>
          <path class="cls-6" d="M134.48,8.51l-1.16,341.37c-.02,5.01,4.24,8.95,9.19,8.51l9.31-.82c4.37-.39,7.73-4.08,7.73-8.5l.07-339.38c0-4.25-3.1-7.84-7.27-8.43l-8.22-1.16c-5.08-.72-9.63,3.25-9.65,8.42Z"/>
        </g>
        <g>
          <path class="cls-14" d="M336.41,325.21l-27.85-305.99c-.35-3.83-3.73-6.84-7.94-7.06l-5.87-.31,3.4-2.45c-7.66,0-13.57,3.16-14.59,8.48-.16.69-.22,1.42-.15,2.16l26.92,307.87c.06.65.21,1.26.42,1.84,1.74,5.71,7.57,8.89,15.26,8.07l-4.86-3.07,8.25-1.29c4.33-.67,7.37-4.25,7.01-8.24Z"/>
          <path class="cls-6" d="M289.23,17.84l26.92,312.87c.4,4.59,4.96,7.88,9.86,7.1l9.21-1.46c4.33-.69,7.37-4.32,7.01-8.37l-27.85-310.96c-.35-3.89-3.73-6.95-7.94-7.18l-8.29-.45c-5.13-.28-9.33,3.71-8.92,8.45Z"/>
        </g>
        <g>
          <path class="cls-12" d="M129.19,264.38c-5.49.75-10.64-1.89-14.36-6.64h-11.87c3.47,5.17,8.46,8.39,13.94,8.47.69,0,1.39-.04,2.11-.12,0,0,0,0,0,0l38.12-5.11,9.22-1.24.62-.49-37.78,5.14Z"/>
          <path class="cls-11" d="M329.73,154.03c-.93-.53-2.09-.93-4.07-1.19l21.93-.81-69.53,2.57c3.61,0,6.55.11,9.1,1.02l42.56-1.59Z"/>
          <path class="cls-11" d="M347.59,152.03c1.31,0,2.6.13,3.85.38-1.25-.3-2.54-.43-3.85-.38Z"/>
          <path class="cls-7" d="M278.06,154.6l-46.05,1.68c.09,0,.18.01.27.02l45.78-1.69h0Z"/>
          <g>
            <path class="cls-11" d="M98.5,245.96c-.16-1.07-.28-2.17-.35-3.29.06,1.12.19,2.22.35,3.29Z"/>
            <path class="cls-11" d="M119.01,266.08c-.71.08-1.42.12-2.11.12.7,0,1.4-.03,2.11-.12Z"/>
            <polygon class="cls-7" points="119.01 266.08 119.02 266.08 157.14 260.97 119.02 266.08 119.01 266.08"/>
            <path class="cls-9" d="M109.15,241.57l-2.76-49.36c-.83-.62-1.72-1.1-2.65-1.39l-8.69-2.75,3.09,54.6c.07,1.13.19,2.22.35,3.29.7,4.5,2.28,8.52,4.47,11.78h11.87c-3.2-4.09-5.33-9.74-5.69-16.17Z"/>
            <path class="cls-7" d="M129.19,264.38l37.78-5.14-58.96-65.56c-.51-.56-1.05-1.04-1.62-1.46l2.76,49.36c.78,13.89,9.83,24.19,20.05,22.8Z"/>
            <path class="cls-11" d="M123.9,161.74l16.87-.63c-2.1-.65-5-.95-8.17-1.13l-19.1.71c-10.86.4-19.27,12.88-18.45,27.39l8.69,2.75c.93.29,1.81.78,2.65,1.39l-.21-3.81c-.79-14.13,7.28-26.28,17.72-26.67Z"/>
            <path class="cls-11" d="M240.48,157.37c-2.13-.62-5.03-.9-8.19-1.08l-44.03,1.63c3.17.03,5.85.2,8.19,1.1l44.04-1.65Z"/>
            <path class="cls-1" d="M354.72,233.65c.04.54-.44.73-1.04.9,4.5-.86,8.43-3.76,11.3-7.94-2.68,3.68-6.23,6.22-10.26,7.04Z"/>
            <path class="cls-1" d="M313.85,239.26l-42.95,5.84c-.19.36-.68.6-1.2.76l43.89-5.89c.22-.32.29-.53.26-.72Z"/>
            <path class="cls-1" d="M219.67,252.07l-52.69,7.17-.62.49-9.22,1.24,62.32-8.36h-.08c.18-.25.27-.41.29-.54Z"/>
            <path class="cls-8" d="M313.43,238.57l-69.98-79.58c-.6-.71-1.64-1.23-2.98-1.62l-44.04,1.65c1.25.48,2.41,1.17,3.49,2.15l70.89,83.11c.19.33.19.6.08.82l42.95-5.84c-.03-.21-.18-.4-.41-.69Z"/>
            <path class="cls-8" d="M331.94,155.61c-.81-.61-1.43-1.14-2.21-1.59l-42.56,1.59c1.4.5,2.68,1.23,3.88,2.33l63.59,75.34c.05.14.07.26.08.37,4.03-.82,7.58-3.36,10.26-7.04,3.63-5.28,5.58-12.58,4.89-20.28l-2.86-31.88,1.59,17.76-36.66-36.6Z"/>
            <path class="cls-8" d="M366.22,169.66c.33,1.49.6,3.09.79,4.8-.15-1.66-.42-3.26-.79-4.8Z"/>
            <path class="cls-8" d="M219.29,251.39l-75.75-88.73c-.57-.67-1.53-1.17-2.77-1.56l-16.87.63c-10.43.39-18.51,12.54-17.72,26.67l.21,3.81c.57.42,1.12.9,1.62,1.46l58.96,65.56,52.69-7.17c.03-.21-.11-.33-.38-.68Z"/>
            <path class="cls-7" d="M269.61,245.9s.06-.02.08-.03l-50.23,6.74,50.15-6.71Z"/>
            <path class="cls-7" d="M186.86,157.91l-54.76,2.03c.17,0,.34.02.5.03l55.65-2.06c-.46,0-.92,0-1.4,0Z"/>
            <path class="cls-9" d="M196.44,159.02c-2.34-.9-5.01-1.08-8.19-1.1l-55.65,2.06c3.17.18,6.07.48,8.17,1.13l55.67-2.08Z"/>
            <path class="cls-12" d="M270.9,245.11l-51.23,6.97c-.02.13-.11.29-.29.55h.08s50.23-6.75,50.23-6.75c.52-.16,1.01-.4,1.2-.76Z"/>
            <path class="cls-7" d="M270.82,244.28l-70.89-83.11c-1.09-.98-2.24-1.67-3.49-2.15l-55.67,2.08c1.24.38,2.2.88,2.77,1.56l75.75,88.73c.27.35.42.48.38.68l51.23-6.97c.12-.23.11-.5-.08-.82Z"/>
            <path class="cls-7" d="M313.58,239.98h0l39.73-5.33c.12-.04.25-.07.36-.1-.27.05-.53.12-.8.16l-39.29,5.27Z"/>
            <path class="cls-9" d="M287.17,155.62c-2.55-.91-5.5-1.03-9.1-1.02l-45.78,1.69c3.16.18,6.06.46,8.19,1.08l46.69-1.75Z"/>
            <path class="cls-12" d="M354.72,233.65c-.3.06-.59.14-.9.18l-39.98,5.44c.03.19-.05.39-.26.72l39.29-5.27c.27-.04.53-.11.8-.16.6-.17,1.08-.36,1.04-.9Z"/>
            <path class="cls-7" d="M354.64,233.29l-63.59-75.34c-1.2-1.09-2.49-1.83-3.88-2.33l-46.69,1.75c1.34.39,2.38.91,2.98,1.62l69.98,79.58c.23.3.38.49.41.69l39.98-5.44c.3-.04.6-.12.9-.18,0-.11-.03-.23-.08-.37Z"/>
            <path class="cls-7" d="M363.98,163.42c.95,1.91,1.7,4,2.24,6.24-2.35-10.64-8.04-15.86-14.77-17.24,5.18,1.23,9.69,5.27,12.53,11Z"/>
            <path class="cls-9" d="M329.73,154.03l19.02-.71c6.18-.23,11.78,3.75,15.23,10.1-2.84-5.73-7.35-9.77-12.53-11-1.25-.26-2.54-.38-3.85-.38l-21.93.81c1.98.25,3.14.66,4.07,1.19Z"/>
            <path class="cls-7" d="M348.75,153.32l-19.02.71c.78.44,1.4.98,2.21,1.59l36.66,36.6-1.59-17.76c-.19-1.71-.46-3.3-.79-4.8-.54-2.24-1.29-4.33-2.24-6.24-3.45-6.35-9.05-10.33-15.23-10.1Z"/>
          </g>
          <path class="cls-11" d="M91.92,107.63c-.31-1.58-.54-3.23-.67-4.97.1,1.71.33,3.37.67,4.97Z"/>
          <path class="cls-11" d="M88.44,53.59l2.81,49.07-2.86-51.27c0,.73,0,1.46.05,2.2Z"/>
          <path class="cls-11" d="M92.14,108.59c-.01-.06-.03-.12-.04-.17.01.06.03.12.04.17Z"/>
          <path class="cls-11" d="M98.61,52.77c-.57-13.7,7.14-25.23,16.98-26.13-17.9.26-27.05,10.78-27.19,24.72,4.86-.03,7.37-.01,10.21,1.41Z"/>
          <path class="cls-11" d="M110.21,125.88c-.49,0-.97-.04-1.45-.08.48.05.96.08,1.45.08Z"/>
          <path class="cls-1" d="M300.45,124.4l-41.14.05c-.04.6-.33,1.13-.84,1.24h-46.08c.76-.24,1.12-.64,1.1-1.18l-56.2.07c-.03.65-.44,1.29-1.3,1.24l143.07-.18c.77-.37,1.21-.78,1.38-1.24Z"/>
          <path class="cls-1" d="M342.31,124.34h-2.82c.04.48-.18.91-.82,1.24l-39.59.05,42.53-.05c10.74-.01,19.19-11.73,18.96-25.61-.15,13.3-8.15,24.36-18.25,24.37Z"/>
          <polygon class="cls-8" points="319.59 44.14 319.58 44.12 277.36 40.46 277.39 40.5 319.59 44.14"/>
          <path class="cls-8" d="M360.13,94.11l.3,3.35c.08.84.12,1.67.13,2.5.01-1.12-.02-2.25-.12-3.39l-.21-2.4v.06s-.1-.13-.1-.13Z"/>
          <path class="cls-8" d="M357.46,64.71c.17.98.32,1.99.43,3.05-.09-1.04-.25-2.05-.43-3.05Z"/>
          <path class="cls-8" d="M340.91,45.97c1.12.13,2.2.36,3.24.68-1.05-.35-2.13-.58-3.24-.68Z"/>
          <path class="cls-8" d="M144.05,29.02l-.1-.14,49.87,4.33.08.11,42.6,3.67-.06-.08,37.81,3.28-156.23-13.56c-.82-.07-1.63-.06-2.43.01.23,0,.45-.01.68-.01l27.79,2.39Z"/>
          <path class="cls-8" d="M360.13,94.11l-40.54-49.98-42.2-3.63,61.85,83.08c.14.27.23.52.25.77h2.82c10.1-.02,18.1-11.08,18.25-24.38-.01-.83-.05-1.66-.13-2.5l-.3-3.35Z"/>
          <path class="cls-8" d="M300.17,122.96l-63.68-85.98-42.6-3.67,65.15,89.88c.22.38.31.84.28,1.26l41.14-.05c.16-.44.05-.92-.28-1.44Z"/>
          <path class="cls-8" d="M98.61,52.77c.93.47,1.9,1.08,3,1.9l55.4,68.89c.22.27.32.65.3,1.02l56.2-.07c0-.28-.12-.59-.34-.95L144.05,29.02l-27.79-2.39c-.23,0-.45,0-.68.01-9.84.9-17.55,12.43-16.98,26.13Z"/>
          <path class="cls-11" d="M92.1,108.41c-.06-.26-.12-.52-.18-.79.05.27.12.52.18.79Z"/>
          <path class="cls-11" d="M88.39,51.36v.03s0-.02,0-.03h0Z"/>
          <polygon class="cls-11" points="156 125.82 156 125.82 110.21 125.88 156 125.82"/>
          <polygon class="cls-11" points="91.25 102.66 91.25 102.66 91.25 102.66 91.25 102.66 91.25 102.66"/>
          <path class="cls-9" d="M105.48,115.65c-2.34-3.83-3.85-8.64-4.15-13.95l-2.71-48.45c0-.16-.01-.32-.02-.48-2.84-1.42-5.35-1.44-10.21-1.41,0,.01,0,.02,0,.03l2.86,51.27h0c.13,1.74.36,3.4.67,4.97.06.26.12.53.18.79.01.06.03.12.04.17.63,2.56,1.58,4.93,2.76,7.04,3.51.11,7.07.28,10.58.02Z"/>
          <path class="cls-12" d="M119.57,124.63c-5.64,0-10.72-3.47-14.09-8.98-3.51.26-7.07.09-10.58-.02,3.2,5.75,8.2,9.61,13.86,10.17.48.04.96.08,1.45.08l45.8-.06c.85.05,1.26-.58,1.3-1.24l-37.73.05Z"/>
          <path class="cls-7" d="M101.6,54.67c-1.1-.82-2.07-1.44-3-1.9,0,.16,0,.32.02.48l2.71,48.45c.72,12.94,8.68,22.94,18.24,22.93l37.73-.05c.02-.37-.08-.75-.3-1.02l-55.4-68.89Z"/>
          <path class="cls-12" d="M212.39,125.7h46.08c.51-.12.79-.65.84-1.25l-45.81.06c.02.54-.34.94-1.1,1.19Z"/>
          <polygon class="cls-11" points="193.81 33.2 143.94 28.88 144.05 29.02 193.89 33.31 193.81 33.2"/>
          <path class="cls-7" d="M259.03,123.19l-65.15-89.88-49.84-4.29,69.11,94.54c.22.35.33.67.34.95l45.81-.06c.03-.42-.06-.87-.28-1.26Z"/>
          <polygon class="cls-11" points="277.36 40.46 274.24 40.19 277.36 40.46 277.36 40.46"/>
          <path class="cls-12" d="M339.49,124.34l-39.04.05c-.16.46-.6.87-1.38,1.24h0l39.59-.05c.64-.34.87-.76.82-1.24Z"/>
          <polygon class="cls-11" points="236.49 36.98 277.39 40.5 277.36 40.46 274.24 40.19 236.43 36.9 236.49 36.98"/>
          <path class="cls-7" d="M277.39,40.5l-40.9-3.52,63.68,85.98c.33.51.44.99.28,1.44l39.04-.05c-.02-.24-.11-.5-.25-.77l-61.85-83.08Z"/>
          <path class="cls-11" d="M357.46,64.71c-1.72-9.86-6.62-15.98-13.31-18.06,6.53,2.19,11.67,9.14,13.31,18.06Z"/>
          <polygon class="cls-11" points="319.58 44.12 319.58 44.12 340.91 45.97 319.58 44.12"/>
          <polygon class="cls-11" points="360.23 94.18 357.89 67.77 357.89 67.76 357.89 67.77 360.23 94.18"/>
          <path class="cls-11" d="M340.11,45.9c9.13.77,16.58,10.37,17.67,22.39l2.35,25.82.1.13v-.06s-2.34-26.41-2.34-26.41c0,0,0,0,0,0-.11-1.06-.26-2.06-.43-3.05-1.64-8.92-6.79-15.87-13.31-18.06-1.04-.32-2.12-.55-3.24-.68l-21.33-1.85v.02s20.54,1.77,20.54,1.77Z"/>
          <path class="cls-7" d="M357.78,68.29c-1.09-12.02-8.54-21.61-17.67-22.39l-20.52-1.77,40.54,49.98-2.35-25.82Z"/>
        </g>
      </g>
    </g>
  </g>
</svg>