<?xml version="1.0" encoding="utf-8"?>
<!-- Generator: Adobe Illustrator 28.2.0, SVG Export Plug-In . SVG Version: 6.00 Build 0)  -->
<svg version="1.1" id="Layer_1" xmlns="http://www.w3.org/2000/svg" xmlns:xlink="http://www.w3.org/1999/xlink" x="0px" y="0px"
	 viewBox="0 0 512 512" style="enable-background:new 0 0 512 512;" xml:space="preserve">
<style type="text/css">
	.st0{fill:#6E7747;}
</style>
<g>
	<path class="st0" d="M256,477.2c-60.4,0-117.1-23.5-159.8-66.2C53.5,368.4,30,311.6,30,251.2c0-60.4,23.5-117.1,66.2-159.8
		c42.7-42.7,99.4-66.2,159.8-66.2c60.4,0,117.1,23.5,159.8,66.2c42.7,42.7,66.2,99.4,66.2,159.8c0,60.4-23.5,117.1-66.2,159.8
		C373.1,453.7,316.4,477.2,256,477.2z M256,57.2c-107,0-194,87-194,194c0,107,87,194,194,194c107,0,194-87,194-194
		C450,144.3,363,57.2,256,57.2z"/>
</g>
<path class="st0" d="M278.6,251.2l67.5-67.5c6.2-6.2,6.2-16.4,0-22.6c-6.2-6.2-16.4-6.2-22.6,0L256,228.6l-67.5-67.5
	c-6.2-6.2-16.4-6.2-22.6,0c-6.2,6.2-6.2,16.4,0,22.6l67.5,67.5l-67.5,67.5c-6.2,6.2-6.2,16.4,0,22.6c3.1,3.1,7.2,4.7,11.3,4.7
	s8.2-1.6,11.3-4.7l67.5-67.5l67.5,67.5c3.1,3.1,7.2,4.7,11.3,4.7s8.2-1.6,11.3-4.7c6.2-6.2,6.2-16.4,0-22.6L278.6,251.2z"/>
</svg>
