<svg width="33" height="23" viewBox="0 0 33 23" fill="none" xmlns="http://www.w3.org/2000/svg">
<path id="Vector" d="M14.925 5.75C14.925 8.51062 12.6806 10.75 9.9 10.75C7.11942 10.75 4.875 8.51062 4.875 5.75C4.875 2.98938 7.11942 0.75 9.9 0.75C12.6806 0.75 14.925 2.98938 14.925 5.75ZM13.3324 14.0096C13.5179 13.9316 13.6958 13.8929 13.86 13.8929C16.7282 13.8929 19.05 16.2092 19.05 19.0571V20.5357C19.05 21.4789 18.2803 22.25 17.325 22.25H2.475C1.51974 22.25 0.75 21.4789 0.75 20.5357V19.0571C0.75 16.2092 3.07177 13.8929 5.94 13.8929C6.10481 13.8929 6.28298 13.9316 6.46834 14.0094C7.52264 14.4518 8.674 14.7143 9.9 14.7143C11.125 14.7143 12.2801 14.4522 13.3324 14.0096ZM28.95 6.57143C28.95 8.87513 27.0717 10.75 24.75 10.75C22.4283 10.75 20.55 8.87513 20.55 6.57143C20.55 4.26772 22.4283 2.39286 24.75 2.39286C27.0717 2.39286 28.95 4.26772 28.95 6.57143ZM27.0717 13.9189C27.1294 13.9005 27.1808 13.8929 27.225 13.8929C30.0056 13.8929 32.25 16.1322 32.25 18.8929C32.25 19.8361 31.4803 20.6071 30.525 20.6071H22.2V19.0571C22.2 17.2352 21.5945 15.5615 20.595 14.1991C21.1231 14.0032 21.6854 13.8929 22.275 13.8929C22.3192 13.8929 22.3706 13.9005 22.4283 13.9189C23.1457 14.1485 23.9204 14.3036 24.75 14.3036C25.5796 14.3036 26.3543 14.1485 27.0717 13.9189Z" stroke="#6E7747" stroke-width="1.5" stroke-linejoin="round"/>
</svg>
