<?xml version="1.0" encoding="UTF-8"?>
<svg id="Layer_2" data-name="Layer 2" xmlns="http://www.w3.org/2000/svg" viewBox="0 0 233.35 249.46">
  <defs>
    <style>
      .cls-1 {
        fill: #71b0cc;
      }

      .cls-1, .cls-2, .cls-3, .cls-4, .cls-5, .cls-6, .cls-7, .cls-8, .cls-9, .cls-10, .cls-11, .cls-12 {
        stroke-width: 0px;
      }

      .cls-2 {
        fill: #629db2;
      }

      .cls-3 {
        fill: #6eb266;
      }

      .cls-4 {
        fill: #ccc;
      }

      .cls-5 {
        fill: #e2973d;
      }

      .cls-6 {
        fill: #dd5078;
      }

      .cls-7 {
        fill: #b7446a;
      }

      .cls-8 {
        fill: #7cc2e8;
      }

      .cls-9 {
        fill: #80d879;
      }

      .cls-10 {
        fill: #e57c9a;
      }

      .cls-11 {
        fill: #fcbe63;
      }

      .cls-12 {
        fill: #eaa549;
      }
    </style>
  </defs>
  <g id="Layer_1-2" data-name="Layer 1">
    <ellipse class="cls-4" cx="116.67" cy="194.98" rx="116.67" ry="54.48"/>
    <path class="cls-2" d="M10.96,86.75v60.26c0,21.5,12.09,39.49,33.23,51.52v-84.1c-19.79-8.9-32.22-5.14-33.23-27.68Z"/>
    <path class="cls-5" d="M188.58,128.49v70.04c21.13-12.03,33.23-30.02,33.23-51.52v-69.93c0,21.68-9.19,38.94-33.23,51.41Z"/>
    <polygon class="cls-6" points="43.5 99.8 116.39 147.1 116.39 60.34 43.5 19.25 43.5 99.8"/>
    <polygon class="cls-1" points="44.19 136.35 116.39 89.75 116.39 127.73 44.19 175.61 44.19 136.35"/>
    <path class="cls-10" d="M116.39,0c-22.52,0-42.1,3.04-57.39,9.65-5.81,2.51-11,5.66-15.5,9.6l72.89,41.09,72.89-41.09C172.93,4.95,147.45,0,116.39,0Z"/>
    <polygon class="cls-7" points="189.28 19.25 116.39 60.34 116.39 111.81 189.28 66.66 189.28 19.25"/>
    <path class="cls-11" d="M189.28,37.95l-72.89,41.86,7.38,4.98,64.82,43.7c24.04-12.47,33.23-28.59,33.23-50.26s-14.94-29.76-32.53-40.28Z"/>
    <polygon class="cls-12" points="116.39 147.1 116.39 79.81 188.58 128.49 188.58 194.98 116.39 147.1"/>
    <path class="cls-9" d="M172.59,154.01l-56.21-37.28-56.21,37.28-15.99,10.6c18.58,12.77,43.47,17.55,72.2,17.55s53.61-4.78,72.2-17.55l-15.99-10.6Z"/>
    <path class="cls-3" d="M44.19,164.69v33.84c18.08,10.29,42.78,16.21,72.2,16.21s54.12-5.92,72.2-16.21v-33.84c-18.58,12.77-43.47,17.55-72.2,17.55s-53.61-4.78-72.2-17.55Z"/>
    <path class="cls-8" d="M43.5,46.55c-19.21,10.06-30.54,20.07-32.53,38.22-.1,2.15-.09,4.23,0,6.25,1,22.54,13.44,36.78,33.23,45.68l72.2-46.6L43.5,46.55Z"/>
  </g>
</svg>