<svg width="26" height="23" viewBox="0 0 26 23" fill="none" xmlns="http://www.w3.org/2000/svg">
<path d="M24.98 19.2471L24.9821 19.2506C25.158 19.5495 25.2503 19.8888 25.25 20.2338C25.2497 20.5788 25.1569 20.9179 24.9804 21.2165L24.9779 21.2209C24.7949 21.5355 24.5302 21.7972 24.2103 21.9783C23.8904 22.1595 23.527 22.2534 23.1576 22.2499V22.2498H23.1505H2.85065V22.2498L2.84294 22.2499C2.47323 22.2537 2.10954 22.1599 1.78927 21.9788C1.46905 21.7976 1.20412 21.5358 1.02097 21.2209L1.0187 21.2171C0.842544 20.9183 0.75 20.5791 0.75 20.2341C0.75 19.8891 0.842544 19.5499 1.0187 19.2512L1.01871 19.2512L1.0211 19.2471L11.1678 1.7878C11.1683 1.78693 11.1688 1.78606 11.1693 1.78519C11.3559 1.47144 11.6223 1.21042 11.943 1.02858C12.2645 0.846201 12.6291 0.75 13.0006 0.75C13.372 0.75 13.7366 0.846201 14.0582 1.02858C14.3789 1.21043 14.6453 1.47146 14.8319 1.78524C14.8324 1.78609 14.8329 1.78695 14.8334 1.7878L24.98 19.2471Z" stroke="#6E7747" stroke-width="1.5"/>
<rect x="12" y="7" width="2" height="7" rx="1" fill="#6E7747"/>
<circle cx="13" cy="17" r="1" fill="#6E7747"/>
</svg>
