<?xml version="1.0" encoding="UTF-8"?>
<svg id="Layer_2" data-name="Layer 2" xmlns="http://www.w3.org/2000/svg" viewBox="0 0 178.72 155.72">
  <defs>
    <style>
      .cls-1 {
        fill: #333;
        stroke-width: 0px;
      }
    </style>
  </defs>
  <g id="Layer_1-2" data-name="Layer 1">
    <path id="Heart" class="cls-1" d="M145.66,1.38c-10.33-2.61-20.59-1.17-29.96,3.85-9.73,5.22-17.89,13.35-24.03,22.46-.82,1.21-1.59,2.44-2.33,3.7C79.38,14.4,60.98-1.71,40.39.15,21.43,1.86,4.95,15.6.93,34.4c-4.65,21.79,8.93,41.72,22.24,57.6,11.97,14.28,25.35,27.39,38.95,40.1,8.29,7.75,16.67,15.46,25.37,22.75.14.12.27.23.41.35.45.38.95.53,1.43.51.48.02.98-.12,1.44-.51,7.18-6.09,14.19-12.4,21.12-18.78,13.67-12.58,27.08-25.54,39.36-39.48,13.49-15.32,28.65-34.32,27.39-55.93-1.1-18.8-14.77-35.03-32.98-39.64Z"/>
  </g>
</svg>