<svg width="67" height="117" viewBox="0 0 67 117" fill="none" xmlns="http://www.w3.org/2000/svg">
<g id="logo final 1" clip-path="url(#clip0_320_3630)">
<g id="Layer 1">
<path id="Vector" d="M34.632 18.9698C14.7845 18.9698 12.4862 43.6903 30.2687 66.9062C32.4641 69.7712 36.7931 69.7712 38.9885 66.9062C56.771 43.6903 54.4727 18.9698 34.6252 18.9698H34.632ZM34.632 41.9452C30.9685 41.9452 28.0047 38.9702 28.0047 35.3082C28.0047 31.6461 30.9753 28.6711 34.632 28.6711C38.2887 28.6711 41.2593 31.6461 41.2593 35.3082C41.2593 38.9702 38.2887 41.9452 34.632 41.9452Z" fill="#911C12"/>
<path id="Vector_2" d="M11.0936 31.7698C12.1638 20.9073 20.8973 12.1679 31.7438 11.1098C43.2078 9.9899 53.1967 17.3346 56.2016 27.6337C56.8945 30.0178 59.0144 31.7011 61.498 31.7011C65.0997 31.7011 67.7822 28.2658 66.8011 24.7892C62.5613 9.86623 48.4286 -0.913798 31.9908 0.0618319C15.5529 1.03746 1.1664 14.82 0.0687096 31.8591C-0.480133 40.365 2.11315 48.2662 6.7989 54.5047C9.00799 57.4522 13.4742 57.3079 15.5735 54.2849C15.5941 54.2574 15.6147 54.223 15.6353 54.1955C16.9799 52.2649 16.8907 49.7022 15.4912 47.8059C12.2324 43.3949 10.4967 37.7885 11.0867 31.7698H11.0936Z" fill="#F0983F"/>
<path id="Vector_3" d="M60.9903 83.169C60.956 83.169 60.9148 83.169 60.8805 83.1759C58.4519 83.3339 56.4006 85.0584 55.9203 87.4494C55.3852 90.1015 54.3904 92.6161 53.0046 94.8903C51.5227 97.3294 52.1607 100.51 54.4933 102.139C54.5208 102.159 54.5551 102.18 54.5825 102.201C57.1346 103.987 60.6884 103.314 62.3143 100.655C64.3862 97.2744 65.875 93.5299 66.6708 89.5793C67.3774 86.089 64.5303 82.9285 60.9834 83.169H60.9903Z" fill="#F0983F"/>
<path id="Vector_4" d="M48.9775 104.159C47.4271 103.025 45.4101 102.84 43.7087 103.712C42.4669 104.351 41.1497 104.866 39.7707 105.244C36.7315 106.076 33.706 106.206 30.8314 105.739C28.5126 105.361 26.2349 106.715 25.3293 108.996C25.3156 109.03 25.3018 109.064 25.2881 109.099C23.9915 112.369 25.9261 116.066 29.2535 116.608C33.1023 117.234 37.1294 117.137 41.184 116.189C43.6812 115.612 46.055 114.726 48.2778 113.585C51.8521 111.751 52.2363 106.543 48.9707 104.159H48.9775Z" fill="#F0983F"/>
<path id="Vector_5" d="M12.4452 92.7947C11.423 90.6442 9.13842 89.277 6.77153 89.5655C3.08743 90.0121 0.864612 93.9146 2.41509 97.2538C4.62419 102.022 7.8898 106.131 11.8552 109.353C14.4965 111.497 18.4619 110.658 20.0398 107.635C20.0535 107.601 20.0741 107.573 20.0878 107.539C21.2816 105.279 20.7739 102.448 18.7843 100.84C16.1293 98.6897 13.9408 95.9552 12.4452 92.7879V92.7947Z" fill="#F0983F"/>
<path id="Vector_6" d="M57.0386 58.4897C54.3835 55.9063 49.9791 56.7171 48.3668 60.0493L48.3188 60.1524C47.2966 62.2685 47.7768 64.7832 49.4577 66.4321C51.4747 68.4109 53.1349 70.7675 54.3287 73.4058C55.3783 75.7281 57.8961 77.0129 60.3865 76.4907C60.4208 76.4839 60.4551 76.477 60.4963 76.4701C63.8717 75.7556 65.7789 72.1073 64.3725 68.9537C62.5887 64.9824 60.0846 61.444 57.0454 58.4897H57.0386Z" fill="#F0983F"/>
</g>
</g>
<defs>
<clipPath id="clip0_320_3630">
<rect width="67" height="117" fill="white"/>
</clipPath>
</defs>
</svg>
