<?xml version="1.0" encoding="utf-8"?>
<!-- Generator: Adobe Illustrator 28.2.0, SVG Export Plug-In . SVG Version: 6.00 Build 0)  -->
<svg version="1.1" id="Layer_1" xmlns="http://www.w3.org/2000/svg" xmlns:xlink="http://www.w3.org/1999/xlink" x="0px" y="0px"
	 viewBox="0 0 512 512" style="enable-background:new 0 0 512 512;" xml:space="preserve">
<style type="text/css">
	.st0{fill:#6E7747;}
</style>
<path class="st0" d="M336,256c-20.6,0-40.4-9.2-56-25.8c-15.1-16.2-24.4-37.9-26-61c-1.7-24.6,5.8-47.3,21.1-63.8S312,80,336,80
	c23.8,0,45.4,9.1,60.7,25.5c15.5,16.6,23,39.2,21.3,63.6c-1.7,23.1-10.9,44.8-26,61C376.4,246.8,356.6,256,336,256z M467.8,432
	H204.2c-8.6,0-16.7-3.9-22-10.7c-5.6-7.3-7.5-16.8-5.3-25.8c8.4-33.8,29.3-61.9,60.3-81.1c27.6-17.1,62.6-26.5,98.8-26.5
	c36.9,0,71,9,98.7,26c31.1,19.1,52,47.3,60.4,81.5c2.3,9,0.3,18.4-5.3,25.8C484.5,428.1,476.4,432,467.8,432z M147,260
	c-35.2,0-66.1-32.7-69-72.9c-1.4-20.6,5-39.6,18-53.6c12.9-13.8,31-21.4,51-21.4s38,7.7,50.9,21.6c13.1,14.1,19.5,33.1,18,53.5
	C213.1,227.3,182.1,260,147,260z M212.7,291.5c-17.6-8.6-40.4-12.9-65.6-12.9c-29.5,0-58.1,7.7-80.6,21.6
	c-25.5,15.8-42.7,38.9-49.6,66.7c-2.1,8.1-0.3,16.7,4.8,23.4c4.8,6.2,12.2,9.8,20.1,9.8h111c3.9,0,7.2-2.8,7.9-6.6
	c0.1-0.6,0.2-1.3,0.4-1.9c8.5-34.1,28.4-62.8,57.7-83.8c3.6-2.6,4.4-7.6,1.8-11.2c-0.7-0.9-1.5-1.7-2.4-2.2
	C216.5,293.4,214.7,292.4,212.7,291.5L212.7,291.5z"/>
</svg>
