<?xml version="1.0" encoding="utf-8"?>
<!-- Generator: Adobe Illustrator 28.2.0, SVG Export Plug-In . SVG Version: 6.00 Build 0)  -->
<svg version="1.1" id="Layer_1" xmlns="http://www.w3.org/2000/svg" xmlns:xlink="http://www.w3.org/1999/xlink" x="0px" y="0px"
	 viewBox="0 0 512 512" style="enable-background:new 0 0 512 512;" xml:space="preserve">
<style type="text/css">
	.st0{fill:#6E7747;}
</style>
<path class="st0" d="M449.1,399.1L278.6,82.6c-12.1-22.4-44.3-22.4-56.4,0L51.9,399.1c-8.4,15.6-2.6,35,13,43.3
	c4.6,2.5,9.8,3.8,15.1,3.8h340.9c17.7,0,32-14.3,32-32C452.9,409,451.6,403.7,449.1,399.1L449.1,399.1z M250.5,397.2
	c-11,0-20-9-20-20s9-20,20-20c11,0,20,9,20,20S261.5,397.2,250.5,397.2z M272.2,196.1l-5.7,122c0,8.8-7.2,16-16,16
	c-8.8,0-16-7.2-16-16l-5.7-121.9c-0.5-12,8.8-22.1,20.7-22.7c0.3,0,0.5,0,0.8,0h0.2c12,0,21.7,9.7,21.8,21.7
	C272.2,195.5,272.2,195.8,272.2,196.1L272.2,196.1z"/>
</svg>
