<?xml version="1.0" encoding="utf-8"?>
<!-- Generator: Adobe Illustrator 28.2.0, SVG Export Plug-In . SVG Version: 6.00 Build 0)  -->
<svg version="1.1" id="Layer_1" xmlns="http://www.w3.org/2000/svg" xmlns:xlink="http://www.w3.org/1999/xlink" x="0px" y="0px"
	 viewBox="0 0 512 512" style="enable-background:new 0 0 512 512;" xml:space="preserve">
<style type="text/css">
	.st0{fill:#6E7747;}
</style>
<g>
	<path class="st0" d="M452.8,469.5H117.9c-8.8,0-16-7.2-16-16s7.2-16,16-16h318.9v-319c0-8.8,7.2-16,16-16s16,7.2,16,16v334.9
		C468.8,462.3,461.6,469.5,452.8,469.5z"/>
</g>
<path class="st0" d="M392.8,42.5H57.9c-8.8,0-16,7.2-16,16v334.9c0,8.8,7.2,16,16,16h334.9c8.8,0,16-7.2,16-16V58.5
	C408.8,49.7,401.6,42.5,392.8,42.5z M225.3,351.5c-8.8,0-15.9-7.1-15.9-15.9s7.1-15.9,15.9-15.9s15.9,7.1,15.9,15.9
	S234.1,351.5,225.3,351.5z M265.3,220.3c-12.1,13.4-23.5,26.1-23.5,62.8c0,8.8-7.2,16-16,16s-16-7.2-16-16c0-49,18.4-69.3,31.8-84.2
	c9.3-10.3,14.8-16.5,14.8-30.4c0-16.9-9.6-34-31-34s-31,17.1-31,34c0,8.8-7.2,16-16,16s-16-7.2-16-16c0-43.3,31.7-66,63-66
	s63,22.7,63,66C288.4,194.7,276.1,208.3,265.3,220.3z"/>
</svg>
