<?xml version="1.0" encoding="utf-8"?>
<!-- Generator: Adobe Illustrator 28.2.0, SVG Export Plug-In . SVG Version: 6.00 Build 0)  -->
<svg version="1.1" id="Layer_1" xmlns="http://www.w3.org/2000/svg" xmlns:xlink="http://www.w3.org/1999/xlink" x="0px" y="0px"
	 viewBox="0 0 512 512" style="enable-background:new 0 0 512 512;" xml:space="preserve">
<style type="text/css">
	.st0{fill:#EF890F;}
</style>
<path class="st0" d="M351.5,105.7c-25.6-34.8-65.3-53.2-114.8-53.2S147.6,70.9,122,105.7C100.4,135.1,89,176,89,224
	c0,114.6,65.9,252.9,147.8,252.9S384.6,338.5,384.6,224C384.5,176,373.1,135.1,351.5,105.7z M236.8,444.9
	c-25.6,0-54.6-25.8-77.7-68.9C135.2,331.3,121,274.5,121,224c0-41.1,9.3-75.5,26.8-99.4c19.6-26.7,49.5-40.2,89-40.2
	s69.4,13.5,89,40.2c17.5,23.9,26.8,58.2,26.8,99.4c0,50.5-14.2,107.4-38.1,152C291.4,419.2,262.4,444.9,236.8,444.9z"/>
<g>
	<path class="st0" d="M236.8,299.6c-42.8,0-77.6-34.8-77.6-77.6s34.8-77.6,77.6-77.6s77.6,34.8,77.6,77.6
		C314.3,264.8,279.5,299.6,236.8,299.6z M236.8,176.4c-25.1,0-45.6,20.4-45.6,45.6c0,25.1,20.4,45.6,45.6,45.6s45.6-20.4,45.6-45.6
		C282.3,196.9,261.9,176.4,236.8,176.4z"/>
</g>
</svg>
