<?xml version="1.0" encoding="utf-8"?>
<!-- Generator: Adobe Illustrator 28.2.0, SVG Export Plug-In . SVG Version: 6.00 Build 0)  -->
<svg version="1.1" id="Layer_1" xmlns="http://www.w3.org/2000/svg" xmlns:xlink="http://www.w3.org/1999/xlink" x="0px" y="0px"
	 viewBox="0 0 512 512" style="enable-background:new 0 0 512 512;" xml:space="preserve">
<style type="text/css">
	.st0{fill:#6E7747;}
</style>
<g>
	<path class="st0" d="M392.8,409.5H57.9c-8.8,0-16-7.2-16-16v-335c0-8.8,7.2-16,16-16h334.9c8.8,0,16,7.2,16,16v334.9
		C408.8,402.3,401.6,409.5,392.8,409.5z M73.9,377.5h302.9v-303H73.9V377.5z"/>
</g>
<g>
	<path class="st0" d="M452.8,469.5H117.9c-8.8,0-16-7.2-16-16s7.2-16,16-16h318.9v-319c0-8.8,7.2-16,16-16s16,7.2,16,16v334.9
		C468.8,462.3,461.6,469.5,452.8,469.5z"/>
</g>
<g>
	<path class="st0" d="M225.7,299c-8.8,0-16-7.2-16-16c0-49,18.4-69.3,31.8-84.2c9.3-10.3,14.8-16.5,14.8-30.4c0-16.9-9.6-34-31-34
		s-31,17.1-31,34c0,8.8-7.2,16-16,16s-16-7.2-16-16c0-43.3,31.7-66,63-66s63,22.7,63,66c0,26.3-12.3,39.9-23.1,51.9
		c-12.1,13.4-23.5,26.1-23.5,62.8C241.7,291.9,234.6,299,225.7,299z"/>
</g>
<circle class="st0" cx="225.3" cy="335.6" r="15.9"/>
</svg>
