<?xml version="1.0" encoding="UTF-8"?>
<svg id="Layer_2" data-name="Layer 2" xmlns="http://www.w3.org/2000/svg" viewBox="0 0 237.83 172.55">
  <defs>
    <style>
      .cls-1 {
        fill: #f8f9fe;
      }

      .cls-1, .cls-2, .cls-3, .cls-4, .cls-5, .cls-6, .cls-7, .cls-8, .cls-9, .cls-10, .cls-11, .cls-12, .cls-13, .cls-14, .cls-15, .cls-16, .cls-17 {
        stroke-width: 0px;
      }

      .cls-2 {
        fill: #798e70;
      }

      .cls-3 {
        fill: #dedcee;
      }

      .cls-4 {
        fill: #dedffb;
      }

      .cls-5 {
        fill: #ccc;
      }

      .cls-6 {
        fill: #e0e0e0;
      }

      .cls-7 {
        fill: #d3e8ca;
      }

      .cls-8 {
        fill: #d3d6e2;
      }

      .cls-9 {
        fill: #a5c699;
      }

      .cls-10 {
        fill: #c13838;
      }

      .cls-11 {
        fill: #96af8c;
      }

      .cls-12 {
        fill: #febc1f;
      }

      .cls-13 {
        fill: #9195c1;
      }

      .cls-14 {
        fill: #e53e3e;
      }

      .cls-15 {
        fill: #ff4343;
      }

      .cls-16 {
        fill: #ffd06c;
      }

      .cls-17 {
        fill: #e9e7fc;
      }
    </style>
  </defs>
  <g id="Layer_1-2" data-name="Layer 1">
    <ellipse class="cls-5" cx="118.01" cy="151.17" rx="118.01" ry="21.37"/>
    <polygon class="cls-3" points="102.47 140.1 .92 83.56 .91 74.94 102.47 131.94 102.47 140.1"/>
    <polygon class="cls-17" points="133.41 129.44 102.47 131.94 .91 74.94 32.02 72.28 133.41 129.44"/>
    <polygon class="cls-8" points="133.41 129.44 32.02 72.28 72.09 34.93 173.56 91.95 133.41 129.44"/>
    <polygon class="cls-17" points="173.56 91.95 72.09 34.93 108.26 30.06 209.11 87.44 173.56 91.95"/>
    <polygon class="cls-1" points="135.98 0 108.26 30.06 209.11 87.44 237.83 56.98 135.98 0"/>
    <polygon class="cls-13" points="102.47 131.94 102.47 140.1 133.41 137.66 173.56 100.03 209.71 95.41 237.83 65.7 237.83 56.98 209.11 87.44 173.56 91.95 133.41 129.44 102.47 131.94"/>
    <polygon class="cls-2" points="33.59 101.75 20.3 94.35 20.3 85.82 33.59 93.28 33.59 101.75"/>
    <polygon class="cls-12" points="20.3 94.35 .92 83.56 .91 74.94 20.3 85.82 20.3 94.35"/>
    <polygon class="cls-16" points="51.39 83.21 20.14 85.73 .91 74.94 32.02 72.28 51.39 83.21"/>
    <polygon class="cls-7" points="65.06 90.91 34.07 93.55 20.14 85.73 51.39 83.21 65.06 90.91"/>
    <polygon class="cls-9" points="104.74 53.27 65.06 90.91 51.39 83.21 91.26 45.69 104.74 53.27"/>
    <polygon class="cls-9" points="154.89 109.39 145.51 118.14 76.89 79.68 86.04 71.01 154.89 109.39"/>
    <polygon class="cls-2" points="140.6 48.46 104.74 53.27 91.26 45.69 127.43 40.97 140.6 48.46"/>
    <polygon class="cls-11" points="168.93 18.43 140.6 48.46 127.43 40.97 155.7 11.03 168.93 18.43"/>
    <polygon class="cls-4" points="208.13 79.95 165.77 56.14 186.04 34.93 228.29 58.67 208.13 79.95"/>
    <g>
      <path class="cls-10" d="M106.62,25.99l-7.1-.67c-2.4-.22-4,.72-4.19,2.66l2.11-1.34c-.13.28-.21.6-.23.93l-.36,4.99c-.03.36.02.7.11,1.02,2.79-2.76,5.79-5.14,9.08-7.23.19-.13.39-.26.59-.37Z"/>
      <path class="cls-14" d="M106.93,26.02l-.31-.03c-.2.11-.39.24-.59.37-1.29.82-2.54,1.69-3.75,2.6.41.52.78,1.06.97,1.78.51,1.92,1.32,3.63,1.5,5.59.71-.07,1.52-.22,2.26-.49.05-.02.11-.04.16-.06,0,0,0,0,0,0,0,0,0,0,0,0,.75-.33,1.3-1.13,1.37-2.1l.36-4.99c.1-1.36-.78-2.55-1.97-2.66Z"/>
      <path class="cls-10" d="M102.28,28.96c-1.87,1.42-3.64,2.95-5.33,4.63.27.89.98,1.56,1.85,1.64h0c.52.05.99.36,1.28.85l.52.87.62,1.02c-.38.16-.68.51-.88,1.08,1.08,0,1.99-.11,2.59-.69.04-.03.07-.07.1-.11l.84-.99.64-.76c.05-.06.1-.11.16-.16.02,0,.04,0,.06,0-.18-1.96-.99-3.66-1.5-5.59-.18-.72-.55-1.26-.97-1.78Z"/>
      <path class="cls-15" d="M105.05,26.42l-7.41-.7c-1.18-.11-2.22.9-2.32,2.26l-.36,4.99c-.1,1.36.78,2.55,1.97,2.66h0c.52.05.99.36,1.28.85l.52.87.69,1.14c.41.67,1.25.75,1.75.16l.84-.99.64-.76c.36-.43.87-.65,1.39-.6l.3.03c1.18.11,2.22-.9,2.32-2.26l.36-4.99c.1-1.36-.78-2.55-1.97-2.66Z"/>
      <path class="cls-14" d="M101.02,33.61h0c-.66-.07-1.15-.59-1.1-1.18l.35-3.88c.06-.68.7-1.18,1.43-1.11h0c.73.07,1.24.69,1.15,1.37l-.51,3.86c-.08.59-.67,1-1.33.93Z"/>
      <path class="cls-14" d="M101.67,34.98c-.04.46-.5.77-.99.69-.45-.07-.77-.44-.73-.83s.41-.71.87-.7c.5,0,.9.38.86.84Z"/>
      <path class="cls-6" d="M100.91,33.37h0c-.61-.06-1.06-.54-1.01-1.09l.32-3.57c.06-.63.65-1.09,1.31-1.02h0c.67.07,1.14.64,1.06,1.26l-.47,3.56c-.07.54-.62.92-1.22.86Z"/>
      <path class="cls-6" d="M101.5,34.91c-.04.42-.46.71-.92.64-.42-.06-.71-.4-.68-.77s.38-.65.8-.65c.46,0,.83.35.79.78Z"/>
    </g>
    <g>
      <path class="cls-10" d="M201.37,48.08l-6.58-.62c-2.22-.2-3.7.67-3.88,2.47l1.95-1.24c-.12.26-.19.55-.22.87l-.33,4.63c-.02.33.02.65.11.94,2.58-2.56,5.36-4.76,8.41-6.7.18-.12.36-.24.54-.34Z"/>
      <path class="cls-14" d="M201.66,48.11l-.29-.03c-.18.1-.36.22-.54.34-1.2.76-2.35,1.56-3.47,2.41.38.48.73.98.89,1.65.47,1.78,1.22,3.36,1.39,5.18.66-.06,1.41-.2,2.09-.46.05-.02.1-.04.15-.06,0,0,0,0,0,0,0,0,0,0,0,0,.69-.31,1.21-1.04,1.27-1.95l.33-4.63c.09-1.26-.73-2.36-1.82-2.47Z"/>
      <path class="cls-10" d="M197.36,50.84c-1.73,1.31-3.37,2.73-4.93,4.29.25.83.91,1.45,1.72,1.52h0c.48.05.91.33,1.19.79l.49.8.57.95c-.35.15-.63.48-.81,1,1,0,1.85-.1,2.4-.64.03-.03.07-.06.1-.1l.78-.92.59-.7c.05-.05.1-.11.15-.15.02,0,.04,0,.05,0-.17-1.81-.92-3.39-1.39-5.18-.17-.67-.51-1.17-.89-1.65Z"/>
      <path class="cls-15" d="M199.93,48.48l-6.87-.65c-1.1-.1-2.06.83-2.15,2.09l-.33,4.63c-.09,1.26.73,2.36,1.82,2.47h0c.48.05.91.33,1.19.79l.49.8.64,1.05c.38.62,1.16.7,1.62.15l.78-.92.59-.7c.33-.4.81-.6,1.28-.55l.28.03c1.1.1,2.06-.83,2.15-2.09l.33-4.63c.09-1.26-.73-2.36-1.82-2.47Z"/>
      <path class="cls-14" d="M196.19,55.15h0c-.61-.06-1.06-.55-1.01-1.09l.32-3.59c.06-.63.65-1.09,1.32-1.03h0c.67.07,1.15.64,1.07,1.27l-.47,3.58c-.07.54-.62.92-1.23.86Z"/>
      <path class="cls-14" d="M196.8,56.41c-.04.42-.47.71-.92.64-.42-.06-.71-.4-.68-.77s.38-.66.8-.65c.46,0,.83.36.8.78Z"/>
      <path class="cls-6" d="M196.09,54.92h0c-.56-.06-.98-.5-.93-1.01l.3-3.31c.05-.58.6-1.01,1.22-.94h0c.62.06,1.06.59.98,1.17l-.43,3.29c-.07.5-.57.85-1.13.79Z"/>
      <path class="cls-6" d="M196.63,56.35c-.03.39-.43.65-.85.59-.39-.06-.65-.37-.63-.71s.35-.61.74-.6c.42,0,.77.33.74.72Z"/>
    </g>
    <g>
      <path class="cls-10" d="M108.77,93.38l-12.96-1.22c-4.37-.4-7.29,1.31-7.64,4.86l3.84-2.44c-.23.51-.38,1.09-.43,1.7l-.65,9.11c-.05.65.03,1.28.21,1.86,5.08-5.04,10.56-9.38,16.55-13.19.35-.24.71-.47,1.07-.68Z"/>
      <path class="cls-14" d="M109.34,93.43l-.57-.05c-.36.21-.71.44-1.07.68-2.36,1.5-4.63,3.08-6.84,4.75.75.95,1.43,1.94,1.76,3.25.92,3.51,2.4,6.62,2.74,10.19,1.29-.12,2.78-.4,4.12-.9.1-.03.19-.07.29-.11,0,0,0,0,0,0,0,0,0,0,0,0,1.36-.6,2.38-2.06,2.5-3.84l.65-9.11c.18-2.48-1.43-4.65-3.59-4.86Z"/>
      <path class="cls-10" d="M100.87,98.81c-3.4,2.58-6.63,5.38-9.72,8.44.5,1.62,1.79,2.85,3.38,3h0c.94.09,1.8.66,2.34,1.55l.96,1.58,1.13,1.86c-.69.29-1.23.94-1.6,1.97,1.98,0,3.64-.2,4.73-1.26.07-.06.13-.13.19-.2l1.54-1.81,1.17-1.38c.09-.11.19-.21.29-.3.03,0,.07,0,.1,0-.33-3.57-1.81-6.68-2.74-10.19-.33-1.31-1.01-2.3-1.76-3.25Z"/>
      <path class="cls-15" d="M105.92,94.17l-13.52-1.27c-2.16-.2-4.05,1.64-4.23,4.12l-.65,9.11c-.18,2.48,1.43,4.65,3.59,4.86h0c.94.09,1.8.66,2.34,1.55l.96,1.58,1.26,2.08c.74,1.23,2.28,1.37,3.18.3l1.54-1.81,1.17-1.38c.66-.78,1.59-1.18,2.53-1.09l.55.05c2.16.2,4.05-1.64,4.23-4.12l.65-9.11c.18-2.48-1.43-4.65-3.59-4.86Z"/>
      <path class="cls-14" d="M98.57,107.29h0c-1.2-.12-2.09-1.08-2-2.15l.64-7.07c.11-1.24,1.28-2.15,2.6-2.02h0c1.32.13,2.26,1.26,2.1,2.5l-.92,7.04c-.14,1.07-1.22,1.82-2.42,1.7Z"/>
      <path class="cls-14" d="M99.76,109.78c-.07.84-.92,1.4-1.81,1.27-.83-.12-1.4-.8-1.34-1.52s.74-1.3,1.58-1.28c.91.01,1.64.7,1.57,1.54Z"/>
      <path class="cls-6" d="M98.37,106.85h0c-1.11-.11-1.93-.99-1.84-1.98l.59-6.51c.1-1.14,1.18-1.99,2.4-1.86h0c1.22.12,2.09,1.17,1.94,2.3l-.85,6.49c-.13.98-1.13,1.68-2.23,1.56Z"/>
      <path class="cls-6" d="M99.43,109.66c-.07.77-.84,1.29-1.67,1.17-.76-.11-1.29-.73-1.23-1.4s.69-1.19,1.46-1.18c.84.01,1.51.65,1.45,1.42Z"/>
    </g>
  </g>
</svg>