<?xml version="1.0" encoding="UTF-8"?>
<svg id="Layer_2" data-name="Layer 2" xmlns="http://www.w3.org/2000/svg" viewBox="0 0 253.64 262.05">
  <defs>
    <style>
      .cls-1 {
        fill: #ccc;
      }

      .cls-1, .cls-2, .cls-3, .cls-4, .cls-5 {
        stroke-width: 0px;
      }

      .cls-2 {
        fill: #e0e0e0;
      }

      .cls-3 {
        fill: #c13838;
      }

      .cls-4 {
        fill: #e53e3e;
      }

      .cls-5 {
        fill: #ff4343;
      }
    </style>
  </defs>
  <g id="Layer_1-2" data-name="Layer 1">
    <g>
      <path class="cls-1" d="M253.64,227.6c0,19.02-56.78,34.44-126.82,34.44-70.04,0-126.82-15.42-126.82-34.44s56.78-34.44,126.82-34.44,126.82,15.42,126.82,34.44Z"/>
      <path class="cls-3" d="M202.85,9.65L108.82.43c-31.75-3.02-52.9,9.89-55.45,36.68l27.87-18.44c-1.69,3.89-2.77,8.24-3.09,12.88l-4.72,68.84c-.34,4.92.23,9.67,1.51,14.05,36.88-38.1,76.61-70.88,120.14-99.67,2.58-1.81,5.15-3.57,7.76-5.13Z"/>
      <path class="cls-4" d="M206.95,10.05l-4.11-.4c-2.61,1.56-5.19,3.32-7.76,5.13-17.11,11.32-33.63,23.26-49.62,35.89,5.46,7.16,10.37,14.63,12.78,24.54,6.7,26.52,17.44,50.01,19.85,77,9.39-.91,20.15-3.02,29.89-6.78.71-.25,1.41-.53,2.1-.84,0,0,0,0,0,0,0,0,0,0,0,0,9.88-4.54,17.24-15.53,18.17-28.99l4.72-68.84c1.28-18.73-10.37-35.15-26.03-36.69Z"/>
      <path class="cls-3" d="M145.46,50.66c-24.7,19.5-48.14,40.65-70.52,63.78,3.61,12.28,12.97,21.51,24.52,22.64h0c6.84.67,13.07,4.96,16.99,11.7l6.94,11.94,8.19,14.08c-5.03,2.2-8.95,7.07-11.65,14.88,14.33,0,26.4-1.53,34.32-9.51.48-.46.94-.95,1.38-1.49l11.14-13.71,8.48-10.43c.66-.81,1.36-1.57,2.1-2.27.25-.02.51-.05.76-.07-2.41-26.99-13.15-50.48-19.85-77-2.42-9.9-7.32-17.37-12.78-24.54Z"/>
      <path class="cls-5" d="M182.17,15.61L84.04,5.99c-15.66-1.53-29.39,12.4-30.68,31.13l-4.72,68.84c-1.28,18.73,10.37,35.15,26.03,36.69h0c6.84.67,13.07,4.96,16.99,11.7l6.94,11.94,9.13,15.69c5.39,9.28,16.52,10.37,23.11,2.27l11.14-13.71,8.48-10.43c4.78-5.88,11.52-8.9,18.35-8.23l3.99.39c15.66,1.53,29.39-12.4,30.68-31.13l4.72-68.84c1.28-18.73-10.37-35.15-26.03-36.69Z"/>
      <path class="cls-4" d="M128.78,114.77h0c-8.71-.92-15.2-8.13-14.5-16.23l4.63-53.43c.81-9.37,9.27-16.28,18.88-15.26h0c9.61,1.02,16.43,9.55,15.26,18.88l-6.69,53.21c-1.01,8.07-8.88,13.75-17.58,12.83Z"/>
      <path class="cls-4" d="M137.42,133.54c-.53,6.32-6.66,10.56-13.17,9.56-6-.92-10.16-6.03-9.7-11.47s5.4-9.79,11.47-9.7c6.59.09,11.93,5.29,11.4,11.61Z"/>
      <path class="cls-2" d="M127.35,111.42h0c-8.02-.85-14.01-7.49-13.36-14.96l4.26-49.22c.75-8.63,8.54-15,17.4-14.06h0c8.85.94,15.14,8.8,14.06,17.4l-6.16,49.02c-.93,7.44-8.18,12.67-16.2,11.82Z"/>
      <path class="cls-2" d="M135.05,132.63c-.48,5.82-6.13,9.73-12.13,8.81-5.53-.85-9.36-5.55-8.94-10.56s4.97-9.02,10.56-8.94c6.07.08,10.99,4.88,10.51,10.69Z"/>
    </g>
  </g>
</svg>