<?xml version="1.0" encoding="UTF-8"?>
<svg id="Layer_2" data-name="Layer 2" xmlns="http://www.w3.org/2000/svg" viewBox="0 0 398.75 354.48">
  <defs>
    <style>
      .cls-1 {
        fill: #4c5c75;
      }

      .cls-1, .cls-2, .cls-3, .cls-4, .cls-5, .cls-6, .cls-7, .cls-8, .cls-9, .cls-10 {
        stroke-width: 0px;
      }

      .cls-2 {
        fill: #1b2943;
      }

      .cls-3 {
        fill: #1d2943;
      }

      .cls-4 {
        fill: #111d37;
      }

      .cls-5 {
        fill: #cbcde3;
      }

      .cls-6 {
        fill: #ccc;
      }

      .cls-7 {
        fill: #aeb8d1;
      }

      .cls-8 {
        fill: #b0b7d1;
      }

      .cls-9 {
        fill: #a09d9d;
      }

      .cls-10 {
        fill: #e3e7f0;
      }
    </style>
  </defs>
  <g id="Layer_1-2" data-name="Layer 1">
    <g>
      <path class="cls-6" d="M337.47,311.7c0,23.63-70.52,42.78-157.52,42.78-87,0-157.52-19.15-157.52-42.78s70.52-42.78,157.52-42.78,157.52,19.15,157.52,42.78Z"/>
      <g>
        <polygon class="cls-4" points="238.5 114.23 238.64 139.92 203.32 113.26 203.1 74.12 238.5 114.23"/>
        <polygon class="cls-3" points="113.41 109.17 203.32 113.26 203.1 74.12 113.41 109.17"/>
        <path class="cls-3" d="M314.01,116.08l-75.37,23.85-.14-25.7c27.65-.89,53.53-.7,75.52,1.85Z"/>
        <polygon class="cls-2" points="232.5 58.9 232.59 73.95 197.41 61.16 232.5 58.9"/>
        <polygon class="cls-4" points="247.17 43.62 247.27 63.09 232.58 72.61 232.5 58.9 247.17 43.62"/>
        <polygon class="cls-3" points="282.36 59.95 247.26 60.14 247.17 43.62 282.34 56.41 282.36 59.95"/>
        <path class="cls-1" d="M246.29,25.77L29.27,153.27l122.84,70.25,209.03-132.47L246.29,25.77ZM232.68,62.43c4.45-5.57,9.29-10.95,14.57-16.11,11.82,2.89,23.21,6.64,34.08,11.44-11.15-.6-21.79-1.89-31.69-4.12-3.2,4.37-8.41,9.91-14.09,15.72-12.22-1.63-23.3-4.23-33.67-7.44,11.06-.52,21.5-.5,30.79.51ZM198.09,97.08c-23.94,5.46-49.8,8.84-77.07,10.7,26.92-11.32,54.12-21.27,81.87-28.31,13.83,13.62,26.6,26.73,35.31,37.94,26.41-2.44,51.48-3.21,74.39-1.31-20.43,6.74-48.83,12.53-80.14,17.99-11.69-11.34-23.12-23.76-34.37-37.01Z"/>
        <polygon class="cls-10" points="0 127.84 29.22 144.52 246.24 17.29 216.03 0 0 127.84"/>
        <polygon class="cls-8" points="29.22 144.52 29.49 193.46 .27 176.83 0 127.84 29.22 144.52"/>
        <polygon class="cls-3" points="29.27 153.27 152.11 223.52 152.33 263.34 29.49 193.46 29.27 153.27"/>
        <polygon class="cls-5" points="246.24 17.29 246.29 25.77 29.27 153.27 29.22 144.52 246.24 17.29"/>
        <polygon class="cls-9" points="182.14 280.29 181.61 231.47 398.48 104.45 398.75 152.85 182.14 280.29"/>
        <polygon class="cls-10" points="152.06 214.61 181.61 231.47 398.48 104.45 368 87 152.06 214.61"/>
        <polygon class="cls-7" points="152.06 214.61 152.33 263.34 182.14 280.29 181.61 231.47 152.06 214.61"/>
        <polygon class="cls-7" points="119.02 176.04 111.7 171.66 96.23 180.8 103.39 185.22 119.02 176.04"/>
        <polygon class="cls-7" points="134.02 167.23 126.62 162.84 142.07 153.71 149.44 158.17 134.02 167.23"/>
        <polygon class="cls-7" points="164.7 149.2 156.91 144.95 172.55 135.7 179.95 140.25 164.7 149.2"/>
        <polygon class="cls-7" points="195.18 131.31 187.57 126.83 203.19 117.6 211 122.01 195.18 131.31"/>
        <polygon class="cls-7" points="256.1 95.52 248.26 90.97 264.3 81.5 271.69 86.36 256.1 95.52"/>
      </g>
    </g>
  </g>
</svg>