<svg width="20" height="23" viewBox="0 0 20 23" fill="none" xmlns="http://www.w3.org/2000/svg">
<path id="Vector" d="M4.08333 6.49634C4.08333 4.97866 4.70185 3.51909 5.80938 2.43986C6.91757 1.35998 8.42463 0.749972 10 0.749972C11.5754 0.749972 13.0824 1.35998 14.1906 2.43986C15.2982 3.51909 15.9167 4.97866 15.9167 6.49634C15.9167 8.01401 15.2982 9.47358 14.1906 10.5528C13.0824 11.6327 11.5754 12.2427 10 12.2427C8.42463 12.2427 6.91757 11.6327 5.80938 10.5528C4.70185 9.47358 4.08333 8.01401 4.08333 6.49634ZM1.49974 21.5115L0.979191 22.0457L1.49974 21.5115C1.01733 21.0414 0.75 20.408 0.75 19.7518C0.75 18.5213 1.25145 17.3371 2.15061 16.4609C3.05042 15.5841 4.27487 15.0882 5.55556 15.0882H14.4444C15.7251 15.0882 16.9496 15.5841 17.8494 16.4609C18.7485 17.3371 19.25 18.5213 19.25 19.7518C19.25 20.408 18.9827 21.0414 18.5003 21.5115C18.0172 21.9822 17.358 22.25 16.6667 22.25H3.33333C2.64202 22.25 1.9828 21.9822 1.49974 21.5115Z" stroke="#6E7747" stroke-width="1.5"/>
</svg>
