<svg width="23" height="23" viewBox="0 0 23 23" fill="none" xmlns="http://www.w3.org/2000/svg">
<path id="Vector" d="M13.5294 15.6102C13.809 15.6102 14.0548 15.5043 14.2668 15.2923C14.4796 15.0794 14.5861 14.8336 14.5861 14.5549C14.5861 14.2753 14.4796 14.0295 14.2668 13.8176C14.0539 13.6056 13.8081 13.4992 13.5294 13.4983C13.2498 13.4983 13.004 13.6047 12.7921 13.8176C12.5801 14.0305 12.4737 14.2762 12.4728 14.5549C12.4728 14.8345 12.5792 15.0803 12.7921 15.2923C13.004 15.5043 13.2498 15.6102 13.5294 15.6102ZM12.9576 11.2044C12.9267 11.5332 13.1991 11.8017 13.5294 11.8017C13.8655 11.8017 14.1368 11.5389 14.1923 11.2074C14.2396 10.9256 14.3072 10.6966 14.3953 10.5205C14.5396 10.2336 14.886 9.83318 15.4344 9.31906C16.0062 8.79953 16.4049 8.33502 16.6304 7.92553C16.8558 7.51784 16.9686 7.04927 16.9686 6.51982C16.9686 5.60884 16.6439 4.84984 15.9945 4.24282C15.3451 3.6349 14.5234 3.33094 13.5294 3.33094C12.7781 3.33094 12.1106 3.53388 11.5271 3.93977C11.1025 4.23502 10.7518 4.60808 10.4747 5.05894C10.2986 5.34567 10.4432 5.70829 10.7511 5.84419C11.0526 5.97728 11.3995 5.84287 11.5844 5.57006C11.7747 5.28929 11.9883 5.06335 12.2252 4.89224C12.5914 4.62796 13.0261 4.49582 13.5294 4.49582C14.1743 4.49582 14.7096 4.68704 15.1354 5.06947C15.5593 5.4519 15.7712 5.94573 15.7712 6.55094C15.7712 6.91894 15.6684 7.26123 15.4628 7.57782C15.2562 7.89351 14.9013 8.27459 14.398 8.72106C13.828 9.21894 13.441 9.67578 13.2372 10.0916C13.093 10.385 12.9999 10.7559 12.9576 11.2044ZM6.24382 18.9412C5.62147 18.9412 5.10194 18.7328 4.68524 18.3161C4.26763 17.8985 4.05882 17.3785 4.05882 16.7562V2.185C4.05882 1.56265 4.26763 1.04312 4.68524 0.626412C5.10194 0.208804 5.62147 0 6.24382 0H20.815C21.4374 0 21.9569 0.208804 22.3736 0.626412C22.7912 1.04312 23 1.56265 23 2.185V16.7562C23 17.3785 22.7916 17.8985 22.3749 18.3161C21.9573 18.7328 21.4374 18.9412 20.815 18.9412H6.24382ZM6.24382 17.5882H20.815C21.0225 17.5882 21.2132 17.5016 21.3873 17.3285C21.5605 17.1544 21.6471 16.9636 21.6471 16.7562V2.185C21.6471 1.97755 21.5605 1.78678 21.3873 1.61271C21.2132 1.43953 21.0225 1.35294 20.815 1.35294H6.24382C6.03637 1.35294 5.84561 1.43953 5.67153 1.61271C5.49835 1.78678 5.41176 1.97755 5.41176 2.185V16.7562C5.41176 16.9636 5.49835 17.1544 5.67153 17.3285C5.84561 17.5016 6.03637 17.5882 6.24382 17.5882ZM2.185 23C1.56265 23 1.04312 22.7916 0.626412 22.3749C0.208804 21.9573 0 21.4374 0 20.815V5.56735C0 5.19375 0.302866 4.89088 0.676471 4.89088C1.05008 4.89088 1.35294 5.19375 1.35294 5.56735V20.815C1.35294 21.0225 1.43953 21.2132 1.61271 21.3873C1.78678 21.5605 1.97755 21.6471 2.185 21.6471H17.4326C17.8063 21.6471 18.1091 21.9499 18.1091 22.3235C18.1091 22.6971 17.8063 23 17.4326 23H2.185Z" fill="#6E7747"/>
</svg>
