<svg width="21" height="23" viewBox="0 0 21 23" fill="none" xmlns="http://www.w3.org/2000/svg">
<path id="Union" fill-rule="evenodd" clip-rule="evenodd" d="M14.8762 18.7429C13.9062 19.3694 12.8099 19.8238 11.618 20.0586C6.37094 21.0923 1.25647 17.4796 0.19452 11.9893C-0.86743 6.49903 2.52528 1.21026 7.77235 0.176506C13.0194 -0.857244 18.1339 2.75549 19.1959 8.24578C19.8429 11.5913 18.836 14.8619 16.7634 17.1407L20.6001 20.8084C21.0969 21.2833 21.1362 22.0834 20.6878 22.5954C20.2395 23.1074 19.4733 23.1375 18.9765 22.6626L14.8762 18.7429ZM16.8207 8.71372C17.6171 12.8314 15.0726 16.798 11.1373 17.5733C7.20201 18.3486 3.36615 15.6391 2.56969 11.5214C1.77322 7.40366 4.31776 3.43708 8.25306 2.66177C12.1884 1.88645 16.0242 4.59601 16.8207 8.71372Z" fill="#6E7747"/>
</svg>
