<svg width="17" height="18" viewBox="0 0 17 18" fill="none" xmlns="http://www.w3.org/2000/svg">
<path fill-rule="evenodd" clip-rule="evenodd" d="M12.184 14.4295C11.4324 14.9104 10.583 15.2592 9.65953 15.4395C5.59413 16.2331 1.63146 13.4596 0.808672 9.24473C-0.0141207 5.02983 2.61453 0.969641 6.67993 0.176031C10.7453 -0.617579 14.708 2.15592 15.5308 6.37081C16.0322 8.93914 15.252 11.45 13.6461 13.1994L16.6188 16.0152C17.0037 16.3797 17.0341 16.9939 16.6868 17.387C16.3394 17.7801 15.7457 17.8032 15.3608 17.4386L12.184 14.4295ZM13.6905 6.73005C14.3076 9.89122 12.3361 12.9364 9.28708 13.5316C6.23803 14.1268 3.26603 12.0467 2.64894 8.88549C2.03184 5.72432 4.00333 2.67917 7.05238 2.08397C10.1014 1.48876 13.0734 3.56888 13.6905 6.73005Z" fill="#B4B4B4"/>
</svg>
