<?xml version="1.0" encoding="UTF-8"?>
<svg id="Layer_2" data-name="Layer 2" xmlns="http://www.w3.org/2000/svg" viewBox="0 0 135.4 135.4">
  <defs>
    <style>
      .cls-1 {
        fill: #6e7747;
        stroke-width: 0px;
      }
    </style>
  </defs>
  <g id="Layer_1-2" data-name="Layer 1">
    <g>
      <polygon class="cls-1" points="77.17 99.27 90.38 49.96 65.51 74.83 77.17 99.27"/>
      <polygon class="cls-1" points="37.21 59.31 61.65 70.96 86.51 46.1 37.21 59.31"/>
      <path class="cls-1" d="M67.7,0C30.37,0,0,30.37,0,67.7s30.37,67.7,67.7,67.7,67.7-30.37,67.7-67.7S105.03,0,67.7,0ZM98.39,40.83c0,.07,0,.15-.01.22,0,.02,0,.04,0,.06,0,.07-.02.13-.03.2,0,.01,0,.02,0,.04-.01.06-.03.12-.04.18l-17.77,66.32c-.3,1.11-1.25,1.91-2.39,2.01-.08,0-.17.01-.25.01-1.05,0-2.01-.6-2.47-1.56l-15.26-32-32-15.26c-1.03-.49-1.65-1.58-1.55-2.72s.91-2.09,2.01-2.39l33.16-8.88,33.16-8.88c.06-.02.12-.03.18-.04.01,0,.03,0,.04,0,.06-.01.13-.02.19-.03.02,0,.04,0,.07,0,.07,0,.14,0,.22-.01,0,0,.01,0,.02,0,.08,0,.15,0,.23.01.02,0,.04,0,.07,0,.06,0,.13.02.19.03.02,0,.03,0,.05,0,.07.01.14.03.21.05.03,0,.05.02.08.02.05.02.1.03.15.05.02,0,.05.02.07.03.06.03.13.06.19.09.03.01.05.03.08.04.05.03.1.06.15.09.02,0,.03.02.05.03.06.04.13.09.19.14.02.01.03.03.05.04.06.05.12.11.18.16s.11.12.16.18c.01.02.03.03.04.05.05.06.09.12.14.19,0,.01.02.03.03.04.03.05.06.1.09.16.01.03.03.05.04.08.03.06.06.13.09.19,0,.02.02.04.02.06.02.05.04.11.06.16,0,.03.02.05.02.08.02.07.04.14.05.21,0,.01,0,.03,0,.04.01.06.02.13.03.19,0,.02,0,.04,0,.06,0,.08.01.15.01.23,0,0,0,0,0,.01Z"/>
    </g>
  </g>
</svg>