<?xml version="1.0" encoding="UTF-8"?>
<svg id="Layer_2" data-name="Layer 2" xmlns="http://www.w3.org/2000/svg" viewBox="0 0 387.98 361.88">
  <defs>
    <style>
      .cls-1 {
        fill: #471f2b;
      }

      .cls-1, .cls-2, .cls-3, .cls-4, .cls-5, .cls-6, .cls-7, .cls-8, .cls-9, .cls-10, .cls-11, .cls-12, .cls-13, .cls-14, .cls-15, .cls-16, .cls-17, .cls-18, .cls-19, .cls-20 {
        stroke-width: 0px;
      }

      .cls-2 {
        fill: #757166;
      }

      .cls-3 {
        fill: #787b68;
      }

      .cls-4 {
        fill: #55594b;
      }

      .cls-5 {
        fill: #6d6c58;
      }

      .cls-6 {
        fill: #88b264;
      }

      .cls-7 {
        fill: #9ac971;
      }

      .cls-8 {
        fill: #3e4138;
      }

      .cls-9 {
        fill: #443e30;
      }

      .cls-10 {
        fill: #41515b;
      }

      .cls-11 {
        fill: #a8761f;
      }

      .cls-12 {
        fill: #ccc;
      }

      .cls-13 {
        fill: #a53d5b;
      }

      .cls-14 {
        fill: #c2e0a9;
      }

      .cls-15 {
        fill: #666956;
      }

      .cls-16 {
        fill: #a12f49;
      }

      .cls-17 {
        fill: #f2c4d2;
      }

      .cls-18 {
        fill: #ffe7c7;
      }

      .cls-19 {
        fill: #e84f75;
      }

      .cls-20 {
        fill: #ffbb50;
      }
    </style>
  </defs>
  <g id="Layer_1-2" data-name="Layer 1">
    <g>
      <path class="cls-12" d="M387.98,238.03c0,51.27-71.61,92.83-159.95,92.83-88.34,0-159.95-41.56-159.95-92.83s71.61-92.83,159.95-92.83,159.95,41.56,159.95,92.83Z"/>
      <g>
        <path class="cls-20" d="M147.44,112.49l-17.02-21.43c-3.05-3.4-3.27-5.72-2.56-8.78l30.5-63.07c1.73-3.14,5.2-4.6,10.17-4.62l39.04,1.39-60.13,96.52Z"/>
        <polygon class="cls-11" points="209.17 5.06 192.9 28.32 187.41 40.03 177.26 47.23 134.84 125.55 247.41 165.36 289.22 152.55 298.23 123.29 261.32 67.48 209.17 5.06"/>
        <path class="cls-20" d="M196.1,68.89c-8.71-2.42-9.4-4.95-8.29-14.07,3.52-17.79,10.9-34.29,21.35-49.76,2.95-4.31,8.29-6.03,13.57-4.52l57.8,13.57c13.75,3.71,18.64,6.87,24.39,16.82l7.06,14.91c2.79,6.91,7.94,10.08,15.83,13.25l32.26,11.83c15.64,4.57,22.09,11.54,21.06,22.63l-25.27,72.54c-2.9,6.66-10.15,8.25-16.67,5.33l-61.93-30.3-5.96-33.49c-2.41-14.14-7.67-19.19-15.65-21.65l-59.58-17.09Z"/>
      </g>
      <rect class="cls-9" x="297.54" y="308.31" width="12.35" height="41.12" rx="6.14" ry="6.14" transform="translate(119.68 -79.21) rotate(18.45)"/>
      <rect class="cls-9" x="329.29" y="218.08" width="12.35" height="41.12" rx="6.14" ry="6.14" transform="translate(92.75 -93.89) rotate(18.45)"/>
      <path class="cls-16" d="M177.81,298.07c-3.44,12.25-7.85,26.77,4.66,31.7l95.05,30.69c16.5,5.17,17.6-4.52,19.94-19.29l-119.65-43.1Z"/>
      <ellipse class="cls-9" cx="39.28" cy="215.76" rx="21.96" ry="19.11"/>
      <ellipse class="cls-9" cx="167.49" cy="134.94" rx="20.33" ry="17.27"/>
      <path class="cls-7" d="M9.1,157.75l34.55-80.12c2.64-6.07,6.34-6.09,15.32-4.32l66.37,15.71c8.62,3.14,16.17,7.16,20.03,14.14l9.8,15.78c4.42,7.13,10.81,10.29,18.05,12.89l27.13,11.39c6.07,2.03,11.91,6.93,11.78,14.53l-4.32,21.6c-7.51,25.3-20.05,58.64-35.59,80.55l-15.46-22.04-35.74-9.82-32.59-21.99L9.1,157.75Z"/>
      <ellipse class="cls-9" cx="138.32" cy="250.94" rx="18.63" ry="21.44" transform="translate(-140.06 318.85) rotate(-74.84)"/>
      <path class="cls-6" d="M7.95,210.75c-3.56-1.09-2.8-8.06-5.44-14.31-2.99-8.5-3.68-13.77,0-23.17l8.01-18.88c2.79-7.17,6.76-8.36,14.88-6.29l66.38,18.02c7.25,1.64,12.06,6.52,14.02,15.16l3.37,20.26c1.04,5.72,1.3,10.41,5.2,15.93,4.77,5.99,9.56,8.1,14.85,9.97l31.8,8.19c6.1,1.67,10.39,5.03,11.73,11.16.88,8.24.82,14.7-2.86,14.31-2.43-.08-4.99-2.97-6.76-7.82-4.73-10.8-12.95-17.63-25.29-19.77-12.13-1.54-20.37-.65-24.71,3.78-3.96,5.06-8.92,6.91-15.26,4.36l-25.83-11.02c-5.85-2.92-9.11-5.41-9.8-10.58-1.34-7.35-12.58-13.92-20.05-16.92-10.68-4.46-20.04-5.79-26.27,1.01-4.15,4.79-5.06,7.38-7.97,6.61Z"/>
      <path class="cls-10" d="M111.52,183.56c-1.73-8.83-.88-16.67,1.67-23.85l23.36-51.23c1.79-4.05,4.15-3.59,6.9,0l6.1,8.76c3.07,4.91,2.6,9.08,1.33,13.54l-29.99,68.48c-1.11,3.51-2.48,6.08-4.51,6.37-2.28,0-3.56-12.9-4.86-22.07Z"/>
      <path class="cls-10" d="M18.27,181.5l22,6.34c8.99,2.76,12.13,1.23,12.69-6.34.63-9.89,2.87-17.73-12.49-22.11-13.48-3.95-14.72-2.83-19.81,5.86-5.77,10.11-9.98,13.29-2.38,16.25Z"/>
      <path class="cls-10" d="M65.06,173.17l1.28,15.96c.83,5.64,4.03,9.3,9.69,10.89l20.83,5.62c6.76,1.57,9.86.04,9.14-4.71-1.41-20.69-6.12-25.73-18.09-29.42l-12.61-3.84c-5.86-1.62-10.92-2.1-10.23,5.51Z"/>
      <ellipse class="cls-4" cx="137.34" cy="254.56" rx="12.34" ry="19.33" transform="translate(-144.27 320.58) rotate(-74.84)"/>
      <ellipse class="cls-8" cx="137.34" cy="254.56" rx="3.62" ry="5.66" transform="translate(-144.27 320.58) rotate(-74.84)"/>
      <ellipse class="cls-4" cx="37.94" cy="218.65" rx="12.34" ry="19.33" transform="translate(-183.02 198.11) rotate(-74.84)"/>
      <ellipse class="cls-8" cx="37.47" cy="220.4" rx="1.81" ry="5.66" transform="translate(-185.06 198.94) rotate(-74.84)"/>
      <g>
        <path class="cls-15" d="M31.39,207.44c-4.08-.15-7.99,1.97-10.26,5.32-.59.87-.19,2.25.72,2.74,1.01.53,2.11.21,2.74-.72.06-.09.12-.18.19-.27,0,0,0,0,0,0,.04-.05.1-.12.12-.15.06-.07.11-.13.17-.2.26-.29.54-.56.83-.82.08-.07.16-.14.24-.21.05-.04.14-.1.16-.12.07-.05.14-.1.21-.15.34-.23.7-.44,1.06-.62.14-.07.29-.13.43-.2-.1.04-.2.07-.02,0,.01,0,.02,0,.03-.01.03-.01.06-.02.08-.04-.02.01-.05.03-.08.04.09-.03.18-.07.27-.1.37-.13.74-.24,1.12-.33.19-.04.38-.08.57-.11,0,0,0,0,0,0,.06,0,.11-.01.17-.02.41-.04.82-.04,1.23-.03,1.05.04,2.05-.95,2-2-.05-1.12-.88-1.96-2-2Z"/>
        <path class="cls-15" d="M28.01,212.04s.01,0,.02,0c0,0,0,0,0,0,0,0,0,0-.01,0Z"/>
      </g>
      <path class="cls-5" d="M46.19,222.83c-.29-.26-.66-.46-1.06-.44-.39.02-.7.16-1.01.4.02-.02.05-.04.07-.06-.37.28-.77.52-1.19.71-.38.14-.77.25-1.16.32-.46.05-.91.05-1.37,0-.35-.04-.82.2-1.06.44-.26.26-.46.69-.44,1.06.02.39.14.79.44,1.06.31.29.64.39,1.06.44,2.07.26,4.14-.49,5.72-1.81.28-.23.44-.71.44-1.06,0-.37-.16-.81-.44-1.06Z"/>
      <path class="cls-3" d="M132.3,246.77c-.13-.41-.35-.78-.64-1.1-.45-.49-1.13-.69-1.77-.73-3.24-.19-6.59,1.72-8.08,4.6-.31.59-.43,1.27-.25,1.93.16.58.61,1.21,1.15,1.49.58.31,1.28.46,1.93.25.37-.12.73-.32,1.03-.58.28-.05.56-.13.8-.29,1.51-1,3.08-1.91,4.69-2.74.47-.24.82-.72,1.02-1.2.21-.5.3-1.1.13-1.63Z"/>
      <path class="cls-2" d="M143.5,261.38c-.1-.34-.27-.63-.51-.88-.13-.1-.27-.21-.4-.31-.31-.18-.65-.27-1.01-.27h-1.86c-.28-.01-.53.05-.77.17-.25.08-.46.22-.64.41-.2.18-.33.4-.41.64-.13.24-.18.5-.17.77l.07.53c.1.34.27.63.51.88.13.1.27.21.4.31.31.18.65.27,1.01.27h1.86c.28.01.53-.05.77-.17.25-.08.46-.22.64-.41.2-.18.33-.4.41-.64.13-.24.18-.5.17-.77-.02-.18-.05-.35-.07-.53Z"/>
      <path class="cls-13" d="M182.48,297.15c1.14-4.13,2.34-8.24,3.6-12.33.75-2.43,1.37-5.34,2.92-7.43,2.43-3.28,6.1-2.73,9.58-1.8,6.78,1.81,13.41,4.92,19.97,7.41,13.36,5.08,26.36,9.73,40.68,11.17,7.02.71,14.09.78,21.13.41,6.68-.35,13.99-.54,20.38-2.64,11.62-3.83,17.23-15.7,16.79-27.36-.41-10.77-4.24-24.17-13.4-30.77-5.33-3.84-11.94-4.44-18.2-5.74-7.59-1.58-15.12-3.44-22.6-5.44-6.87-1.84-13.7-3.8-20.52-5.81-6.06-1.78-13.46-2.96-18.79-6.6-7.22-4.95-4.29-13.57-.89-19.95,3.76-7.07,7.7-13.98,10.99-21.29,5.03-11.17,8.26-26.21,18.16-34.36-4.06.14-7.79,2.06-10.56,6.55-25.97,52.99-48.02,105.41-63.91,156.92-1.27,5.37-.47,8.36,3.82,10.02l6.42,2.23c-1.6-.99-3.15-2.04-4.64-3.15-3.5-2.61-1.91-6.44-.92-10.02Z"/>
      <path class="cls-14" d="M201.42,160.69c-1.14-.31-2.06.39-2.46,1.4-6.55,16.29-13.25,32.51-20.1,48.68-1.96,4.63-3.94,9.26-5.92,13.88-.43.99-.29,2.14.72,2.74.84.49,2.31.28,2.74-.72,7.04-16.37,13.93-32.8,20.66-49.3,1.93-4.73,3.85-9.47,5.76-14.21.4-1-.44-2.2-1.4-2.46Z"/>
      <path class="cls-14" d="M77.95,206.71c-1.89-.48-3.77-.97-5.66-1.45-.76-.19-1.66.25-1.85,1.05-.18.78.23,1.64,1.05,1.85,1.89.48,3.77.97,5.66,1.45.76.19,1.66-.25,1.85-1.05.18-.78-.23-1.64-1.05-1.85Z"/>
      <path class="cls-19" d="M345.23,173.78c-5.75-9.2-14.04-16.2-25.76-20.23l-61.53-18.12c-1.91-.59-3.82-.89-5.66-.82-9.91,8.15-13.14,23.19-18.16,34.36-3.29,7.31-7.23,14.22-10.99,21.29-3.39,6.39-6.33,15.01.89,19.95,5.32,3.64,12.73,4.82,18.79,6.6,6.82,2,13.65,3.97,20.52,5.81,7.49,2,15.01,3.86,22.6,5.44,6.26,1.31,12.87,1.9,18.2,5.74,9.16,6.61,12.99,20,13.4,30.77.44,11.66-5.17,23.53-16.79,27.36-6.39,2.11-13.7,2.29-20.38,2.64-7.04.37-14.11.3-21.13-.41-14.32-1.44-27.32-6.09-40.68-11.17-6.56-2.49-13.19-5.6-19.97-7.41-3.49-.93-7.16-1.48-9.58,1.8-1.55,2.09-2.17,5-2.92,7.43-1.26,4.09-2.46,8.2-3.6,12.33-.99,3.59-2.58,7.42.92,10.02,1.49,1.11,3.04,2.16,4.64,3.15l99.16,34.48c6.08,2.34,8.95,1.21,10.26-3.62,3.83-15.42,7.38-32.42,13.35-36.05,4.03-.21,6.07-4.73,7.24-11.16l7.95-29.44,2.11-9.35c2.59-2.01,4.58-2.94,4.43-8.64.56-12.7,5.37-24.76,9.96-29.5,4.36-2.86,4.74-8.38,5.49-13.16.45-12.85-1.03-19.13-2.76-30.1Z"/>
      <path class="cls-1" d="M212.12,250.01c-6.65-2.59-7.34-6.95-5.78-11.99.46-1.48,1.12-2.89,1.89-4.24l6.94-12.15c2.7-4.12,6.41-5.62,10.62-5.84,2.6-.13,5.2.29,7.68,1.07l57.55,18.2c5.97,1.76,10.86,4.8,14.23,9.66,2.16,3.11,3.37,6.78,3.74,10.55l1.34,13.66c.77,10.01-5.17,11.9-15.11,8.96l-83.11-27.88Z"/>
      <path class="cls-1" d="M319.64,255.71c-.66-8.2-1.12-15.84-.85-21.43-.06-4.09.82-8.32,2.35-12.66l4.27-8.57c1.86-3.3,3.9-3.3,4.48.85.43,3.88.83,7.59.85,9.81.23,5.62-1.14,11.38-2.71,16.05l-5.18,15.94c-1.52,5.13-2.58,4.99-3.2,0Z"/>
      <path class="cls-1" d="M340.35,208.39c-2.07,6.14-4.72,5.45-5.73.25-.51-2.9-1.04-5.48-1.26-7.94-.89-5.62-.19-11.32,1.65-15.44,4.07-13.03,6.74-4.85,9.89-.58,1.14,3.1.24,10.08-.64,13.56l-3.91,10.14Z"/>
      <path class="cls-17" d="M323.72,166.3c-8.38,13.42-7.06,29.79-10.18,44.73-.87,4.18-2.1,8.29-4.01,12.12-1.15,2.3,2.3,4.32,3.45,2.02,7.05-14.13,5.4-30.27,9.32-45.22,1.08-4.11,2.62-8.02,4.88-11.63,1.37-2.19-2.09-4.2-3.45-2.02Z"/>
      <path class="cls-10" d="M254.23,131c8.64,1.65,12.95-.59,12.33-7.25l-1.9-16.32c-1.63-6.28-4.78-11.28-10.43-14.14l-28.29-9.79c-7.84-2.36-14.88-3.17-18.36,2.93-6.32,14.46-8.9,27.09,4.55,31.89l42.1,12.69Z"/>
      <path class="cls-10" d="M193.79,108.27c.26,3.82-1.96,3.45-4.4,2.68l-4.6-2.68c-4.11-2.48-4.69-6.21-3.54-10.53l3.92-12.53c2.56-6.4,6.05-8.66,9.77-9.88,7.31-.98,7.82,2.39,5.94,7.28-5.47,6.15-6.71,15.56-7.09,25.66Z"/>
      <path class="cls-10" d="M277.28,123.1l25.63-62.61c1.38-4.55.31-10.69-1.13-16.11l-3.19-6.73c-1.18-2.83-2.25-2.99-3.23-1.14l-15.14,38.65c-3.57,10.05-6.79,18.14-2.94,47.94Z"/>
      <path class="cls-18" d="M209,127.28c-2.57-.73-5.13-1.46-7.7-2.19-.75-.21-1.67.26-1.85,1.05-.18.8.24,1.62,1.05,1.85,2.57.73,5.13,1.46,7.7,2.19.75.21,1.67-.26,1.85-1.05.18-.8-.24-1.62-1.05-1.85Z"/>
    </g>
  </g>
</svg>